<svg xmlns="http://www.w3.org/2000/svg" viewBox="0 0 1920 380.96"><defs><style>.cls-1{isolation:isolate;}.cls-2{fill:#26003f;}.cls-3,.cls-5{fill:#ff976e;}.cls-3,.cls-4{opacity:0.7;mix-blend-mode:soft-light;}</style></defs><g class="cls-1"><g id="Calque_1" data-name="Calque 1"><path class="cls-2" d="M0,904.39c38.4,29.12,133-59.64,340.41-4.34s268.87,81.41,268.87,81.41,342-31,400.1-16.41,216.86-76.44,350-77,445.44-109.84,491.52-105L1920,703v378.52H0Z" transform="translate(0 -703)"/><path class="cls-3" d="M0,904.39c38.4,29.12,133-59.64,340.41-4.34s268.87,81.41,268.87,81.41,342-31,400.1-16.41,216.86-76.44,350-77,445.44-109.84,491.52-105L1920,703v378.52H0Z" transform="translate(0 -703)"/><path class="cls-2" d="M1920,703c-25.6,55.81-174.08,193.31-146.77,240.22S1920,1081.52,1920,1081.52Z" transform="translate(0 -703)"/><path class="cls-2" d="M1402.88,1081.52s39.25-130.21,73.4-162.58c22.46-21.3-69.1-4.88-73.25-3.84-97.78,24.5-168.56,97.66-234,166.42Z" transform="translate(0 -703)"/><path class="cls-2" d="M510.29,1084S512,997.28,442,1018,303.78,804.11,39.25,1084Z" transform="translate(0 -703)"/><path class="cls-2" d="M1244.91,902.78c.17.59-.47,1.09-.3,1.68.3,1,9.61.62,9.12-.15a3.4,3.4,0,0,0-1-1.08c-1.14-1.08-3.58-1.24-3.91-1.39,0,0-5.14-17.73-5.14-19.89,0-1.24,4.47-6.61,8.26-11.53a58.78,58.78,0,0,0-.81,12.12c.13,1.94,6.7,15.86,8.41,19.33.34.71-.25.83.11,1.62s8.43.59,8.56-.11-3.91-2.24-4.89-3.24a23.93,23.93,0,0,1-4.39-6.87c-1.78-5.56-2.92-11.42-1.61-17.13,1.47-6.33,3.6-13,4.09-19.29,0,0-.81-1.23,1.79,0,2.2,1,20.73,3.56,32.43,1.25-.66,5.09,1.1,10.2-.53,15.29-.82,2.94-2,5.86-1.48,9a40.26,40.26,0,0,1,.32,8.8c-.17,2.77-.17,6.32-1.15,9,0,0-1.47,3.54-.33,3.86s6.19.77,6.68-.31-1.47-2.16-2.12-3.86c-1.27-3.33.17-6.94.67-10.33a49.24,49.24,0,0,1,1.63-7.1c.82-3.09.66-6.18,1-9.11.82-5.86,3.75-12,3.76-17.9,2.21-.18,2.69,1.77,2.44,3.87.5,8.95,0,12.19-.22,18.51a151.25,151.25,0,0,0,1.32,15.9c.33,2.16-.33,5.71.81,7.41a3.81,3.81,0,0,0-.9,3.26c.33.9,6.6,1.22,8.23.14a21.84,21.84,0,0,0-2.28-2,2.31,2.31,0,0,1-.72-1.71c-.47-7.48-2.23-13.78-.07-20.83,2.44-8,3.1-11.5,3.11-22,0,0,3.15-10.06,2.13-15.74a1.92,1.92,0,0,1,1.55-1.43c7.25-.79,16.12-2,17.84-10.13,1.31-6.48.34-13.42.5-19.9.17-3.4,2.77-7.71,7.34-5.71.83.37,1.43.16,2.6.62,2,.79,2.28-1.64,2.12-3.24a4.8,4.8,0,0,0-1.74-3.7c-3.31-2.79-7.82-3.41-11.6-3.72h-.14l.12,0a20,20,0,0,1-2.38-1.46c-.92-.4-1.22.29-1.71.93a4.31,4.31,0,0,0-.47.77c-.93.23-1.67.63-1.85,1.31-2.64,9.6.56,20.7-3.37,29.36-1.47,3.24-4.71,3.25-8.15,3.38-17.23.66-15.5-20.44-26-15.77-6.78,3-9.35,13-13.49,14.4-6.95,2.3-6.29-14-13.06-14-10.58-.06-11.77,12.18-16.79,14.23a12.3,12.3,0,0,0-2.93,1.54c-3.3,2-5.71,6.79-6.2,10-.66,5.55.32,11,1.61,16.36.81,3.09,2.76,8.18,1.94,11.42-.88,3.91-4.27,8.65-5.87,12.49-.45,1.08-.6,1.21-.16,2.16A139.63,139.63,0,0,1,1244.91,902.78Z" transform="translate(0 -703)"/><g class="cls-4"><path class="cls-5" d="M1244.91,902.78c.17.59-.47,1.09-.3,1.68.3,1,9.61.62,9.12-.15a3.4,3.4,0,0,0-1-1.08c-1.14-1.08-3.58-1.24-3.91-1.39,0,0-5.14-17.73-5.14-19.89,0-1.24,4.47-6.61,8.26-11.53a58.78,58.78,0,0,0-.81,12.12c.13,1.94,6.7,15.86,8.41,19.33.34.71-.25.83.11,1.62s8.43.59,8.56-.11-3.91-2.24-4.89-3.24a23.93,23.93,0,0,1-4.39-6.87c-1.78-5.56-2.92-11.42-1.61-17.13,1.47-6.33,3.6-13,4.09-19.29,0,0-.81-1.23,1.79,0,2.2,1,20.73,3.56,32.43,1.25-.66,5.09,1.1,10.2-.53,15.29-.82,2.94-2,5.86-1.48,9a40.26,40.26,0,0,1,.32,8.8c-.17,2.77-.17,6.32-1.15,9,0,0-1.47,3.54-.33,3.86s6.19.77,6.68-.31-1.47-2.16-2.12-3.86c-1.27-3.33.17-6.94.67-10.33a49.24,49.24,0,0,1,1.63-7.1c.82-3.09.66-6.18,1-9.11.82-5.86,3.75-12,3.76-17.9,2.21-.18,2.69,1.77,2.44,3.87.5,8.95,0,12.19-.22,18.51a151.25,151.25,0,0,0,1.32,15.9c.33,2.16-.33,5.71.81,7.41a3.81,3.81,0,0,0-.9,3.26c.33.9,6.6,1.22,8.23.14a21.84,21.84,0,0,0-2.28-2,2.31,2.31,0,0,1-.72-1.71c-.47-7.48-2.23-13.78-.07-20.83,2.44-8,3.1-11.5,3.11-22,0,0,3.15-10.06,2.13-15.74a1.92,1.92,0,0,1,1.55-1.43c7.25-.79,16.12-2,17.84-10.13,1.31-6.48.34-13.42.5-19.9.17-3.4,2.77-7.71,7.34-5.71.83.37,1.43.16,2.6.62,2,.79,2.28-1.64,2.12-3.24a4.8,4.8,0,0,0-1.74-3.7c-3.31-2.79-7.82-3.41-11.6-3.72h-.14l.12,0a20,20,0,0,1-2.38-1.46c-.92-.4-1.22.29-1.71.93a4.31,4.31,0,0,0-.47.77c-.93.23-1.67.63-1.85,1.31-2.64,9.6.56,20.7-3.37,29.36-1.47,3.24-4.71,3.25-8.15,3.38-17.23.66-15.5-20.44-26-15.77-6.78,3-9.35,13-13.49,14.4-6.95,2.3-6.29-14-13.06-14-10.58-.06-11.77,12.18-16.79,14.23a12.3,12.3,0,0,0-2.93,1.54c-3.3,2-5.71,6.79-6.2,10-.66,5.55.32,11,1.61,16.36.81,3.09,2.76,8.18,1.94,11.42-.88,3.91-4.27,8.65-5.87,12.49-.45,1.08-.6,1.21-.16,2.16A139.63,139.63,0,0,1,1244.91,902.78Z" transform="translate(0 -703)"/></g><path class="cls-2" d="M1400.13,884.72c.25.57-.31,1.13-.05,1.7.43.93,9.6-.6,9-1.31a3.54,3.54,0,0,0-1.12-.94c-1.28-.93-3.72-.78-4.06-.89,0,0-7.61-16.91-7.91-19-.18-1.23,3.49-7.12,6.55-12.48a60.12,60.12,0,0,0,.91,12.11c.41,1.91,8.89,14.87,11.07,18.09.44.66-.13.85.34,1.6s8.43-.5,8.46-1.2-4.19-1.72-5.3-2.6a24.16,24.16,0,0,1-5.32-6.24c-2.55-5.29-4.5-11-4-16.78.56-6.45,1.73-13.3,1.32-19.62,0,0-1-1.13,1.77-.23,2.33.75,21,.89,32.32-2.89.07,5.13,2.53,10,1.63,15.23-.39,3-1.11,6-.2,9a40.82,40.82,0,0,1,1.57,8.68c.22,2.77.72,6.29.12,9,0,0-1,3.7.22,3.87s6.24,0,6.57-1.15-1.76-2-2.64-3.56c-1.73-3.14-.81-6.9-.8-10.32a49.35,49.35,0,0,1,.61-7.25c.38-3.16-.22-6.2-.31-9.14,0-5.92,2-12.41,1.2-18.23,2.16-.45,2.91,1.42,3,3.53,1.77,8.81,1.68,12.08,2.41,18.37a149.54,149.54,0,0,0,3.56,15.59c.62,2.1.47,5.7,1.84,7.24a3.75,3.75,0,0,0-.43,3.34c.45.86,6.71.37,8.18-.9a21.74,21.74,0,0,0-2.55-1.7,2.35,2.35,0,0,1-1-1.61c-1.53-7.35-4.16-13.37-3-20.63,1.29-8.25,1.45-11.79,0-22.25,0,0,1.7-10.36-.12-15.87a1.88,1.88,0,0,1,1.33-1.61c7.07-1.7,15.69-4.07,16.25-12.3.38-6.59-1.56-13.35-2.31-19.79-.32-3.39,1.65-8,6.46-6.59.88.26,1.43,0,2.67.29,2.11.53,2-1.92,1.64-3.48a4.92,4.92,0,0,0-2.25-3.45c-3.68-2.35-8.23-2.38-12-2.21h-.14l.11-.06a21,21,0,0,1-2.57-1.14c-1-.28-1.17.44-1.56,1.13a4.85,4.85,0,0,0-.36.83c-.88.34-1.56.84-1.65,1.53-1.25,9.85,3.49,20.44.82,29.52-1,3.4-4.21,3.83-7.59,4.39-17,2.85-18.26-18.28-28-12.33-6.3,3.84-7.43,14.12-11.33,16-6.57,3.16-8.21-13-14.92-12.21-10.5,1.28-10,13.56-14.64,16.23a12,12,0,0,0-2.68,1.9c-3,2.43-4.7,7.45-4.72,10.72.13,5.59,1.86,10.82,3.9,16,1.24,3,3.9,7.76,3.54,11.07-.32,4-3,9.12-4.05,13.13-.29,1.13-.43,1.27.15,2.16A142.29,142.29,0,0,1,1400.13,884.72Z" transform="translate(0 -703)"/><g class="cls-4"><path class="cls-5" d="M1400.13,884.72c.25.57-.31,1.13-.05,1.7.43.93,9.6-.6,9-1.31a3.54,3.54,0,0,0-1.12-.94c-1.28-.93-3.72-.78-4.06-.89,0,0-7.61-16.91-7.91-19-.18-1.23,3.49-7.12,6.55-12.48a60.12,60.12,0,0,0,.91,12.11c.41,1.91,8.89,14.87,11.07,18.09.44.66-.13.85.34,1.6s8.43-.5,8.46-1.2-4.19-1.72-5.3-2.6a24.16,24.16,0,0,1-5.32-6.24c-2.55-5.29-4.5-11-4-16.78.56-6.45,1.73-13.3,1.32-19.62,0,0-1-1.13,1.77-.23,2.33.75,21,.89,32.32-2.89.07,5.13,2.53,10,1.63,15.23-.39,3-1.11,6-.2,9a40.82,40.82,0,0,1,1.57,8.68c.22,2.77.72,6.29.12,9,0,0-1,3.7.22,3.87s6.24,0,6.57-1.15-1.76-2-2.64-3.56c-1.73-3.14-.81-6.9-.8-10.32a49.35,49.35,0,0,1,.61-7.25c.38-3.16-.22-6.2-.31-9.14,0-5.92,2-12.41,1.2-18.23,2.16-.45,2.91,1.42,3,3.53,1.77,8.81,1.68,12.08,2.41,18.37a149.54,149.54,0,0,0,3.56,15.59c.62,2.1.47,5.7,1.84,7.24a3.75,3.75,0,0,0-.43,3.34c.45.86,6.71.37,8.18-.9a21.74,21.74,0,0,0-2.55-1.7,2.35,2.35,0,0,1-1-1.61c-1.53-7.35-4.16-13.37-3-20.63,1.29-8.25,1.45-11.79,0-22.25,0,0,1.7-10.36-.12-15.87a1.88,1.88,0,0,1,1.33-1.61c7.07-1.7,15.69-4.07,16.25-12.3.38-6.59-1.56-13.35-2.31-19.79-.32-3.39,1.65-8,6.46-6.59.88.26,1.43,0,2.67.29,2.11.53,2-1.92,1.64-3.48a4.92,4.92,0,0,0-2.25-3.45c-3.68-2.35-8.23-2.38-12-2.21h-.14l.11-.06a21,21,0,0,1-2.57-1.14c-1-.28-1.17.44-1.56,1.13a4.85,4.85,0,0,0-.36.83c-.88.34-1.56.84-1.65,1.53-1.25,9.85,3.49,20.44.82,29.52-1,3.4-4.21,3.83-7.59,4.39-17,2.85-18.26-18.28-28-12.33-6.3,3.84-7.43,14.12-11.33,16-6.57,3.16-8.21-13-14.92-12.21-10.5,1.28-10,13.56-14.64,16.23a12,12,0,0,0-2.68,1.9c-3,2.43-4.7,7.45-4.72,10.72.13,5.59,1.86,10.82,3.9,16,1.24,3,3.9,7.76,3.54,11.07-.32,4-3,9.12-4.05,13.13-.29,1.13-.43,1.27.15,2.16A142.29,142.29,0,0,1,1400.13,884.72Z" transform="translate(0 -703)"/></g><path class="cls-2" d="M1548.8,855.11c.21.58-.39,1.12-.17,1.7.38,1,9.63-.06,9.08-.8a3.62,3.62,0,0,0-1-1c-1.22-1-3.67-1-4-1.11,0,0-6.52-17.31-6.69-19.46-.1-1.24,3.93-6.91,7.33-12.09a59.21,59.21,0,0,0,.14,12.14c.28,1.93,7.93,15.34,9.91,18.68.4.69-.18.85.24,1.62s8.45,0,8.52-.72-4.07-1.95-5.12-2.89a23.68,23.68,0,0,1-4.92-6.54c-2.22-5.42-3.81-11.18-3-17,1-6.41,2.57-13.18,2.56-19.52,0,0-.91-1.17,1.78-.12,2.28.88,21,2.08,32.44-1.06-.25,5.13,1.91,10.09.68,15.29-.59,3-1.5,6-.77,9a40.24,40.24,0,0,1,1,8.74c0,2.79.33,6.33-.44,9,0,0-1.18,3.64,0,3.87s6.23.34,6.63-.77-1.63-2-2.41-3.7c-1.54-3.24-.38-6.94-.16-10.35a49.76,49.76,0,0,1,1.07-7.2c.57-3.13.17-6.2.27-9.15.36-5.91,2.8-12.27,2.34-18.12,2.19-.33,2.82,1.58,2.73,3.69,1.21,8.89.92,12.15,1.25,18.47a150.39,150.39,0,0,0,2.57,15.76c.49,2.13.12,5.72,1.39,7.33a3.78,3.78,0,0,0-.64,3.32c.4.88,6.67.75,8.22-.45a21,21,0,0,0-2.44-1.83,2.41,2.41,0,0,1-.85-1.66c-1-7.43-3.31-13.59-1.71-20.77,1.8-8.16,2.18-11.69,1.36-22.21,0,0,2.35-10.25.89-15.85a1.88,1.88,0,0,1,1.43-1.53c7.16-1.3,15.91-3.18,17-11.36.79-6.56-.73-13.42-1.07-19.89-.1-3.4,2.15-7.88,6.86-6.21.87.31,1.44.06,2.65.44,2.07.64,2.14-1.8,1.86-3.38a4.89,4.89,0,0,0-2-3.58c-3.52-2.54-8.07-2.84-11.86-2.88h-.14l.11,0a20.06,20.06,0,0,1-2.48-1.28c-1-.34-1.2.37-1.63,1a4.14,4.14,0,0,0-.42.8c-.91.3-1.61.75-1.74,1.44-1.87,9.76,2.2,20.6-1,29.51-1.21,3.34-4.44,3.59-7.86,4-17.13,1.88-17.07-19.28-27.18-13.89-6.53,3.48-8.3,13.67-12.31,15.32-6.76,2.78-7.38-13.47-14.13-13-10.56.69-10.79,13-15.63,15.38a11.65,11.65,0,0,0-2.8,1.74c-3.13,2.26-5.15,7.17-5.39,10.44-.22,5.59,1.18,10.9,2.9,16.2,1,3,3.4,8,2.83,11.25-.57,4-3.57,8.93-4.86,12.87-.37,1.11-.51,1.25,0,2.17A140.66,140.66,0,0,1,1548.8,855.11Z" transform="translate(0 -703)"/><g class="cls-4"><path class="cls-5" d="M1548.8,855.11c.21.58-.39,1.12-.17,1.7.38,1,9.63-.06,9.08-.8a3.62,3.62,0,0,0-1-1c-1.22-1-3.67-1-4-1.11,0,0-6.52-17.31-6.69-19.46-.1-1.24,3.93-6.91,7.33-12.09a59.21,59.21,0,0,0,.14,12.14c.28,1.93,7.93,15.34,9.91,18.68.4.69-.18.85.24,1.62s8.45,0,8.52-.72-4.07-1.95-5.12-2.89a23.68,23.68,0,0,1-4.92-6.54c-2.22-5.42-3.81-11.18-3-17,1-6.41,2.57-13.18,2.56-19.52,0,0-.91-1.17,1.78-.12,2.28.88,21,2.08,32.44-1.06-.25,5.13,1.91,10.09.68,15.29-.59,3-1.5,6-.77,9a40.24,40.24,0,0,1,1,8.74c0,2.79.33,6.33-.44,9,0,0-1.18,3.64,0,3.87s6.23.34,6.63-.77-1.63-2-2.41-3.7c-1.54-3.24-.38-6.94-.16-10.35a49.76,49.76,0,0,1,1.07-7.2c.57-3.13.17-6.2.27-9.15.36-5.91,2.8-12.27,2.34-18.12,2.19-.33,2.82,1.58,2.73,3.69,1.21,8.89.92,12.15,1.25,18.47a150.39,150.39,0,0,0,2.57,15.76c.49,2.13.12,5.72,1.39,7.33a3.78,3.78,0,0,0-.64,3.32c.4.88,6.67.75,8.22-.45a21,21,0,0,0-2.44-1.83,2.41,2.41,0,0,1-.85-1.66c-1-7.43-3.31-13.59-1.71-20.77,1.8-8.16,2.18-11.69,1.36-22.21,0,0,2.35-10.25.89-15.85a1.88,1.88,0,0,1,1.43-1.53c7.16-1.3,15.91-3.18,17-11.36.79-6.56-.73-13.42-1.07-19.89-.1-3.4,2.15-7.88,6.86-6.21.87.31,1.44.06,2.65.44,2.07.64,2.14-1.8,1.86-3.38a4.89,4.89,0,0,0-2-3.58c-3.52-2.54-8.07-2.84-11.86-2.88h-.14l.11,0a20.06,20.06,0,0,1-2.48-1.28c-1-.34-1.2.37-1.63,1a4.14,4.14,0,0,0-.42.8c-.91.3-1.61.75-1.74,1.44-1.87,9.76,2.2,20.6-1,29.51-1.21,3.34-4.44,3.59-7.86,4-17.13,1.88-17.07-19.28-27.18-13.89-6.53,3.48-8.3,13.67-12.31,15.32-6.76,2.78-7.38-13.47-14.13-13-10.56.69-10.79,13-15.63,15.38a11.65,11.65,0,0,0-2.8,1.74c-3.13,2.26-5.15,7.17-5.39,10.44-.22,5.59,1.18,10.9,2.9,16.2,1,3,3.4,8,2.83,11.25-.57,4-3.57,8.93-4.86,12.87-.37,1.11-.51,1.25,0,2.17A140.66,140.66,0,0,1,1548.8,855.11Z" transform="translate(0 -703)"/></g><path class="cls-2" d="M704.43,810.34c0-.09,0-.16,0-.23,0-.27-.4,0-.44.16a.06.06,0,0,0,0,0c-1.11,0-2.22,0-3.32,0a.19.19,0,0,0-.15,0c-1.07,0-2.15,0-3.23.08a.94.94,0,0,0-.1-.23c-.07-.12-.28,0-.27.15v.08l-2.66.15c0-.1,0-.23,0-.34s-.23,0-.24.11a1.1,1.1,0,0,0,0,.26c-3.56.24-7.12.65-10.66,1.24a4.89,4.89,0,0,0-.19-.46c-.06-.13-.26.06-.24.14s0,.25.08.38a128.62,128.62,0,0,0-27.44,7.83c-2.12.87-4.26,1.84-6.39,2.88.27-.32.52-.66.8-1l.15-.24c.66-.22,1.29-.49,1.93-.75a1.26,1.26,0,0,0,0,.27c0,.16.21.08.28,0s.35-.4.52-.61l.12-.05c.07,0,.19-.18.14-.24a4.67,4.67,0,0,1,1.6-1.32c.11-.05.41-.47.11-.44a3.31,3.31,0,0,0-2.59,1.87l-1.38.27c.26-.34.49-.62.58-.61s.29-.2.15-.26c-.7-.25-1.48.71-1.85,1.13l-.78.19,1.07-.53c.19-.11.32-.54,0-.38l-3,1.39s0,0,0,0,.05-.21,0-.23a6.79,6.79,0,0,0-2.42,0c2.41-1.42,4.88-2.79,7.23-4.28a6.65,6.65,0,0,1,3.52.22c.14.05.43-.22.29-.32a4.56,4.56,0,0,0-2.57-.71l.71-.47c.07,0,.1-.22,0-.16l-1.28.66a18.92,18.92,0,0,0-4,.86l-.67.2c3.08-1.73,6.16-3.48,9.18-5.31h0a2.76,2.76,0,0,1,2.51,1c.09.17.38-.09.34-.23-.62-1.68-2.94-1.83-5.44-1.39,1.37-.74,2.75-1.47,4.17-2.14.07.07.19,0,.23-.1.51-.23,1-.47,1.54-.69,1.06-.12,1.82,0,1.89.53,0,.2.3,0,.31-.15a.86.86,0,0,0-.72-1c.44-.18.86-.35,1.3-.51.07,0,.14-.19,0-.15-.59.18-1.19.36-1.78.56a10.89,10.89,0,0,0-3.23.39c2.38-1.18,4.8-2.27,7.21-3.37.06,0,.13-.19,0-.16l-1.71.61a3.09,3.09,0,0,0-1.82-.22l1.64-.78.14,0a35.83,35.83,0,0,1,7.35-1.69c.1,0,.31-.28.12-.27a30.28,30.28,0,0,0-4.13.52.69.69,0,0,0,.21-.33c.65-.37,1.29-.74,1.91-1.16.08,0,.11-.21,0-.14-.95.37-1.87.79-2.8,1.2a17.26,17.26,0,0,0-3.79.7c.66-.45,1.3-.92,2-1.36l1.11-.5c2.81-.17,5.58-.73,8.38-1,0,.15,0,.27.22.19a2.41,2.41,0,0,0,1-.42c.13-.11.69-.75.22-.84a10.2,10.2,0,0,0-2.14-.18l0,0a9.36,9.36,0,0,0-2.27-.08c1.18-.49,2.33-1,3.51-1.42a13.64,13.64,0,0,1,3.23-.73c.07,0,.29-.23.14-.26a3.86,3.86,0,0,0-.6,0l1.4-.52a1.28,1.28,0,0,0,.22.09l-.08.13c-.17.3.25.21.37.06-.07.09.5-.25.62-.43s.16-.25.1-.36c-.5-.83-1.88-.56-2.74-.49a13.39,13.39,0,0,0-2.38.35l.3-.18a44.79,44.79,0,0,1,7.42-2.06c.33,0,.54,0,.51.12-.06.27.31.07.38-.06a.73.73,0,0,0,.09-.23l1-.16s.15-.14,0-.14-.51,0-.78,0c.21-.11.43-.2.63-.33a.69.69,0,0,0,.32-.59,2.2,2.2,0,0,0,.39-.17c.18-.11.48-.6.08-.62a11.88,11.88,0,0,0-3.66.44l3.06-1.78c.2-.11.25-.54-.08-.39-2.72,1.3-5.46,2.68-8.18,4.15a14.89,14.89,0,0,0-4.71,2c-.06.06-.21.29-.08.33a20.63,20.63,0,0,0-4.38,2.78.14.14,0,0,0,0,.18c-2.25,1.38-4.48,2.82-6.67,4.31l-.6.32a.6.6,0,0,0-.17.21c-3.81,2.64-7.5,5.46-11,8.45a2.38,2.38,0,0,0-2.14-.42l2.49-2.35a8.94,8.94,0,0,1,2.16-.27s.14-.09.08-.12a3.79,3.79,0,0,0-1.54-.26l2.23-2h0a.45.45,0,0,1,.32.12c.1.12.34-.12.29-.22s0-.08-.06-.13c.32-.08.57-.06.55.27,0,.12.19,0,.21-.07.12-.56.23-.4.1-.83,0-.06-.1-.07-.15-.06l-.4.15c.69-.62,1.4-1.22,2.1-1.82.38,0,.65.12.58.52,0,.19.23,0,.26-.08a5.11,5.11,0,0,0,.31-.67c0-.08,0-.19-.09-.2a9.29,9.29,0,0,0-5.16,1.3,20.86,20.86,0,0,1,2.14-1.92c.17-.11.14-.38-.09-.23a8.12,8.12,0,0,0-3,2.92c-.05.12.09.13.15.06s.26-.27.39-.41h0a16.23,16.23,0,0,1,2.9-1,8.33,8.33,0,0,1,1.42-.31c-.9.64-1.8,1.3-2.68,2-1.27-.5-4.21,1.61-5.21,2.59a17.14,17.14,0,0,0-2,1.42c-.11.09-.11.23,0,.25a20.88,20.88,0,0,0-1.8,1.21c4-4.74,8.57-8.83,14.73-11.35.06,0,.15-.19,0-.17a17.81,17.81,0,0,0-6.2,2.69,6.6,6.6,0,0,1,2.48-2s.17-.2,0-.19c-1.46.14-2.72,1.62-3.56,2.92-.68.48-1.32,1-2,1.53a16.18,16.18,0,0,0,1.39-2.71c.07-.18-.15-.15-.21,0-.89,1.29-1.76,2.62-2.58,4-.63.57-1.24,1.14-1.81,1.71-.4.4-.77.83-1.15,1.23.47-1,.92-1.91,1.46-2.84l1.22-.6c.07,0,.3-.27.12-.31a3.45,3.45,0,0,0-.72-.08c.14-.22.26-.45.43-.67s0-.17-.14-.08-.4.48-.61.71c-2.39,0-5.19,1.93-7,3.17a53.08,53.08,0,0,1,8.45-5.63,12.06,12.06,0,0,1,1.92-.36c.09,0,.32-.23.19-.32a1.8,1.8,0,0,0-.46-.23l.31-.17c.11-.06.31-.36,0-.32s-.75.18-1.12.28a4.81,4.81,0,0,0-1.74.17c1.72-.87,3.45-1.73,5.08-2.75.09-.06.2-.29,0-.25-3.85.76-7.52,3-10.72,5a32.15,32.15,0,0,0-3,2.17c.13-.24.23-.48.35-.71a.22.22,0,0,0,.22,0c2.22-1.17,4.14-2.75,6.3-4a28.32,28.32,0,0,1,9-3.32c.1,0,.33-.22.21-.33-2.14-1.81-6.27.43-8.29,1.44a20.27,20.27,0,0,0-6.44,4.49c.5-.91,1-1.81,1.55-2.71,1.71-.9,3.37-2,5-2.77.89-.43,7.62-4,8.39-3,.09.12.31-.12.28-.23-.42-1.25-2.78-.89-5.61.16,2.91-1.89,5.91-3.68,9-5.4a1.56,1.56,0,0,1,1,.36c.16.14.46-.17.35-.32a2.3,2.3,0,0,0-.58-.5c.08-.11.09-.27-.09-.18l-.12.06c-2.26-1.09-6.31,1.52-8.05,2.5a56.92,56.92,0,0,0-6,3.61c.25-.38.5-.76.77-1.14.48-.49,1-1,1.49-1.46a32.25,32.25,0,0,1,2.93-1.74c2.92-1.48,6.93-3.48,10.34-2.49.11,0,.31-.13.25-.24-1.34-2.84-6.79-.43-9.14.63,3.58-2.8,7.57-4.95,12.38-5.3.1,0,.31-.19.17-.27a5.6,5.6,0,0,0-3-.45,8.23,8.23,0,0,0-3.49.73,37.44,37.44,0,0,1,8.57-4.6,2.16,2.16,0,0,1,1.66.32c.07.07.24-.09.18-.16a2.84,2.84,0,0,0-.71-.6l.37-.15c.07,0,.23-.23.06-.23a10.52,10.52,0,0,0-1.12.07c-2.37-.68-6,1.18-7.89,2-.83.35-1.62.74-2.42,1.13.62-.62,1.27-1.23,1.92-1.84,1.22-.38,2.43-.79,3.66-1.18.5-.15,7.35-2,7.36-1.6,0,.19.29,0,.32-.11.4-2-4.69-.42-5.37-.24-1.15.31-2.4.62-3.63,1,.38-.34.76-.69,1.15-1a21.46,21.46,0,0,0,3.13-1c.87-.34,1.72-.69,2.61-.94.59-.18,1.9-.05,2.31-.47-.15.15-.17.46.14.33a1.79,1.79,0,0,0,.73-.45c.13-.12.39-.54.07-.65-2.43-.78-5.15.63-7.45,1.87q2.18-1.85,4.48-3.64c.14-.11.21-.46-.06-.32a44.53,44.53,0,0,0-4,2.46c.26-.34.54-.67.79-1a7.39,7.39,0,0,0,1.64-3.3c0-.34-.47-.14-.58,0a8.82,8.82,0,0,0-.65.86.06.06,0,0,0,0,0c-.48.68-.92,1.39-1.39,2.06a21.44,21.44,0,0,0-1.56,2.59c-1,.78-2.06,1.59-3,2.43a19.32,19.32,0,0,1,2.19-3.72c.48-.58,1.82-2.1,1.41-2.91,0-.06-.09-.07-.16-.06a.75.75,0,0,0-.33.17c-.14.09-.2.41,0,.28a9.94,9.94,0,0,0-2.23,2.48,29.67,29.67,0,0,0-1.86,3.35c-.41.74-.81,1.45-1.18,2.19a9.65,9.65,0,0,0-1.52,1.07c.64-1.33,1.27-2.65,2-3.91.67-1.1,2.23-2.72,2.05-4.06,0-.16-.23-.09-.31,0l0,0c-.07.08-.16.34,0,.27-1.14.4-2.4,2.55-3.24,3.85s-1.62,2.49-2.37,3.87a20.5,20.5,0,0,0,2.3-6.41c0-.36-.47-.05-.62.17,0,0,0,0,0,0-1.75,2.93-3,6.25-4.43,9.32-.28.59-.56,1.17-.86,1.77a4.74,4.74,0,0,0-1.32,1.32c-.06.09,0,.27.11.27a4.52,4.52,0,0,0,.53-.11c-.25.54-.45,1.08-.66,1.64l-1.26,1.54c-.27.34-.52.7-.79,1a35.12,35.12,0,0,0,2-5.48c.17-.75,1.34-5,1.44-5s.42-.36.16-.38c-1.3-.08-2.3,3.58-2.59,4.36a89.73,89.73,0,0,0-3.23,8.86c-.36.23-.71.49-1.06.75.52-3.24,1-6.49,2.74-9.34,0,0,0-.16-.08-.16-1.89,0-2.76,4.47-3.07,5.62a57.75,57.75,0,0,0-1.24,5.66c-.06.12-.14.22-.2.35s0,.22.14.22c-.08.61-.14,1.22-.17,1.82-.45.7-.9,1.41-1.34,2.14l-.5.34c.13-.77.24-1.56.37-2.34.37-2.6,1-5.27,1.19-7.88,0-.23-.32,0-.36.08-1.42,2.43-1.78,5.42-2.22,8.12-.17,1.09-.34,2.16-.5,3.24l-.09.09c-.15.2-.19.52,0,.64,0,.2,0,.4-.06.6-.46.47-.86,1-1.27,1.47.1-1,.22-2,.36-3,.23-1.44.48-2.87.73-4.31a13.37,13.37,0,0,0,0-2.1.26.26,0,0,0,.1-.07l.18-.21c.13-.08.27-.42,0-.37l-.21,0a.52.52,0,0,0-.37.35,36.63,36.63,0,0,0-2.42,14.4c-.48,1-.94,1.91-1.41,2.87.13-1.46.22-2.93.3-4.41.18-3.16.79-6.35.81-9.51,0-.25-.35,0-.38.13a34.86,34.86,0,0,0-1.48,9c-.19,2.34-.33,4.68-.33,7-.63.74-1.24,1.48-1.81,2.25,0-1.23,0-2.45,0-3.68a99.83,99.83,0,0,1,1.24-10.48c0-.2-.24-.08-.29,0-1.42,3.18-1.74,6.78-2,10.2a41.45,41.45,0,0,0-.08,5.58c-.23.36-.49.7-.72,1.06s.18.26.32.11.31-.32.46-.48c.05.59.12,1.17.22,1.75-.48,1.22-1,2.44-1.42,3.66-.1-2.53-.34-5.05-.42-7.59-.1-3.13-.78-6.86.19-9.88.07-.19-.21-.05-.26,0a8.54,8.54,0,0,0-.88,3.93l-.06,0c-.17.34-.33.66-.48,1a.4.4,0,0,0-.35.13,41.29,41.29,0,0,0-4.63,9c-.32.83-.64,1.69-.93,2.57-.07-.46-.13-.91-.2-1.37a43.15,43.15,0,0,1,3.24-10.26,131.67,131.67,0,0,1,7.24-13c.1-.15-.07-.23-.19-.1a35.82,35.82,0,0,0-5.83,8.95,36.83,36.83,0,0,0-4.22,8.47,37.81,37.81,0,0,1,1.76-6A80.29,80.29,0,0,1,627.12,799c.13-.23-.18-.16-.28-.06a38.3,38.3,0,0,0-6.48,11.19,35,35,0,0,0-1.65,5.07c-.13-1-.27-2-.41-3,.09-.41.14-.84.23-1.24a.18.18,0,0,0,.15-.11c2.36-7.72,6.61-14.08,10.66-21,.12-.21-.19-.15-.28,0a55.61,55.61,0,0,0-7.71,12.53,17,17,0,0,0-3.45,6.84c0-.17,0-.34-.07-.49,1.62-4.61,3.82-8.91,5.59-13.45.09-.25-.22-.14-.3,0a47.59,47.59,0,0,0-5.46,12.22c-.12-1-.25-1.89-.36-2.84,1.17-3.57,2.38-7.07,3.91-10.55.11-.24-.21-.19-.31-.05a25.73,25.73,0,0,0-3.65,8.22,22.62,22.62,0,0,0-.39-3,26.58,26.58,0,0,1,2.59-7.16c1.34-2.57,3.1-5,4.23-7.63.12-.26-.2-.2-.31-.06a49.63,49.63,0,0,0-3.92,6.22c.63-1.56,1.3-3.09,2.07-4.59a56.69,56.69,0,0,1,7.54-10.66c.12-.14,0-.27-.16-.15-6.11,4.84-9.66,12.45-11.63,19.82-.14.34-.28.68-.41,1a26.22,26.22,0,0,1,1.91-6.38c1.08-2.39,2.4-4.67,3.4-7.1.12-.24-.2-.13-.28,0-1,1.6-2.12,3.36-3.14,5.22,2-5.53,4.36-10.86,8.08-15.69.12-.17-.07-.24-.19-.12-5,4.85-7.18,11.56-9,18-.33.73-.62,1.46-.87,2.2,0-.53-.1-1-.17-1.54.63-2,1.34-4,2.15-6,.11-.25-.19-.18-.29-.05a15.23,15.23,0,0,0-2.19,4l-.09-.4c.19-1.09.42-2.17.72-3.25a36.43,36.43,0,0,1,3.58-7.74c.09-.18-.14-.17-.24-.07a13.82,13.82,0,0,0-1.87,2.33,34.75,34.75,0,0,1,5.55-9.7c.16-.2-.08-.26-.24-.13a15.38,15.38,0,0,0-2.24,2.32c.09-.2.19-.39.28-.6s-.19-.17-.28,0a31.23,31.23,0,0,0-5.3,9.8,12.28,12.28,0,0,0-.14-1.36c1.64-4.85,4.4-8.94,6.68-13.54.1-.2-.17-.15-.25,0a37.23,37.23,0,0,0-6.54,12.73c0-.23-.1-.47-.15-.7.82-3.36,2.82-6.56,4.7-9.38.13-.18-.06-.25-.2-.12a19.92,19.92,0,0,0-4.57,6.95,28.76,28.76,0,0,1,3.83-10.84c.14-.25-.2-.18-.3-.06a22.6,22.6,0,0,0-1.73,2.46c.38-1,.78-2.08,1.23-3.11.08-.16-.14-.13-.19,0a24.24,24.24,0,0,0-2.94,7.09c0-.81-.1-1.63-.18-2.43a22.55,22.55,0,0,1,3.12-7.9c.12-.2-.14-.2-.26-.09a12.13,12.13,0,0,0-3.22,5.31l0-.28s0,0,0-.07a63.38,63.38,0,0,1,3.2-7.44c.1-.21-.18-.17-.28,0a15.13,15.13,0,0,0-3.14,6.54l-.24-1.56c0-1.57,0-3.15.11-4.72,0-.08-.11,0-.11,0-.07,1.23-.12,2.44-.17,3.66-.1-.63-.21-1.27-.3-1.91-.05-.27-.41,0-.42.19a28.19,28.19,0,0,0,.51,9.37c0,.93,0,1.85,0,2.78a16.14,16.14,0,0,0-2-4.25c-.12-.17-.45.16-.44.3a29.53,29.53,0,0,0,2,6.84c.2.62.37,1.24.56,1.85,0,1.22,0,2.42.07,3.63a31.39,31.39,0,0,0-2.12-5.8c-.13-.24-.5.1-.49.27.13,3.1,1.22,6,2.14,9,.24.78.45,1.56.68,2.34.07,1.74.15,3.47.25,5.21a95.44,95.44,0,0,0-3.62-9.29c-.09-.19-.42.08-.39.22a56.91,56.91,0,0,0,2.85,9.69c.52,1.46,1,2.93,1.46,4.41.09,1.51.2,3,.31,4.52a2.3,2.3,0,0,1-.12-.34c-1.3-3.36-2.61-7.15-5.1-9.89-.15-.16-.43.18-.4.32.75,3.38,2.53,6.5,3.87,9.69.81,1.94,1.49,3.91,2.17,5.89l.27,3.61c-.13-.33-.25-.66-.39-1-1.28-3.25-2.55-6.85-4.76-9.65-.13-.18-.48.16-.46.31.09.51.26,1,.4,1.51a7.9,7.9,0,0,0-2.06-2.63c-.24-.2-.73.22-.69.48s.09.58.13.88.23.11.37,0a15.49,15.49,0,0,1,2.06,5.26l-.53-.6c-.14-.13-.4.16-.36.3a30.4,30.4,0,0,0,1.46,4v0a10,10,0,0,0-1.11-1.52c-.11-.12-.36.13-.35.25a28.57,28.57,0,0,0,2.28,8c.21,1.26.45,2.5.68,3.76a20.8,20.8,0,0,0-1.13-2.38c-.65-1.83-1.32-3.65-2-5.47-1.53-4.31-2.64-9-5-13-.07-.14-.34.07-.28.19.31.65.57,1.33.84,2,0,0,0,0,0,.07,2.29,6.38,3.37,13,5.38,19.46-.36-.64-.68-1.29-1-1.93s-1-1.54-1.48-2.33a.15.15,0,0,0,.05-.13c-2.18-6.34-4.05-12.73-7-18.81-.09-.19-.35.07-.38.18a1.43,1.43,0,0,0-.09.27c-.09.23.26.09.32,0-.37.82.69,2.3,1,3.12.64,1.59,1.26,3.12,1.78,4.75a70.81,70.81,0,0,0,3.51,9.5,97.34,97.34,0,0,0-7.58-10.06.24.24,0,0,0,.08-.19,40.34,40.34,0,0,0-7-14.43c-.23-.27-.73.28-.66.52a3.52,3.52,0,0,0,1,1.75h0c1,1.74,2,3.48,2.85,5.28,1,2,1.78,4.07,2.84,6-1.09-1.23-2.19-2.45-3.34-3.63.07,0,.11-.13.07-.17-.58-.54-1.22-1.1-1.89-1.64-.44-.45-.87-.89-1.32-1.33,0,0,0,0,0,0a35.05,35.05,0,0,0-2-5.94l0,.06c.06.13.21,0,.3-.08h0c.37.51.71,1,1,1.57.58.94,1.07,1.92,1.57,2.9a28.65,28.65,0,0,0,2.61,4.47c.06.09.26-.11.23-.19a33.74,33.74,0,0,0-5.32-9.74c-.09-.11-.31,0-.39.09s-.13.13-.2.2a.37.37,0,0,0-.1.23,12.76,12.76,0,0,0-3.82-4.89c-.14-.09-.38.11-.36.24s0,.45.05.68.28,0,.28-.13,1.65,2.07,1.76,2.24a24.65,24.65,0,0,1,1.58,2.9c.8,1.62,1.49,3.29,2.28,4.91-1.09-1-2.21-2-3.34-3-.85-3.05-2.08-6.73-4.88-8.58-.22-.15-.67.21-.55.44a4.92,4.92,0,0,1,.38.85c0,.12.19,0,.28-.08a31.64,31.64,0,0,1,3.6,6.33c-.91-.81-1.86-1.57-2.8-2.35a37.56,37.56,0,0,0-3.56-4.78c0-.07-.2.07-.17.14.67,1.08,1.37,2.19,2.1,3.29q-2.19-1.74-4.44-3.39s-.09,0-.06.06c1.75,1.37,3.45,2.79,5.1,4.24.44.64.88,1.26,1.34,1.86a30.07,30.07,0,0,0-5.59-2c-.1,0-.3.15-.17.22,2.91,1.5,6,3,9,4.22l.15.16c.06.1.11.2.17.29a.11.11,0,0,0,.14,0l1,1a21.62,21.62,0,0,0-5.85-2.59c-.08,0-.19.12-.1.15,3.22,1.34,5.84,3.37,8.6,5.26.77.87,1.55,1.72,2.3,2.61a44.47,44.47,0,0,0-7.83-4.53c-.08,0-.24.13-.14.19a61.08,61.08,0,0,1,10.36,7.3c.27.35.55.68.83,1-1.63-1.54-3.63-3-5.64-2.92-.06,0-.23.17-.12.19a5.25,5.25,0,0,1,1,.33.6.6,0,0,0-.32.44,2.18,2.18,0,0,0,.14,1.15c.06.2.42-.1.41-.23s0-.34,0-.5a21,21,0,0,1,4.74,3.16l.89.94c1.18,1.25,2.26,2.59,3.36,3.91.71,1.11,1.42,2.22,2.1,3.35A102.16,102.16,0,0,0,593.7,806s-.14.06-.11.1l1.64,1.57c-.89-.67-1.8-1.32-2.73-1.93-.08-.06-.24.09-.17.16.94,1,1.95,1.9,2.95,2.8h0c2.1,2.18,4.1,4.42,6,6.71a11.24,11.24,0,0,0-2.81-1.83c-1.7-1.56-3.69-3-5.58-2.69,0,0-.12.11-.07.12,3.25.61,6.14,4.53,8.36,6.66,2.71,2.63,5.34,5.33,7.94,8.06.3.34.58.7.87,1,.67,1.58,1.3,3.16,1.88,4.78-1.06-1.41-2.14-2.78-3.24-4.15a47.76,47.76,0,0,0-2.95-4,11.65,11.65,0,0,0-2-2.09l-.89-1.1c-1-1.29-2.23-3.11-3.92-3.7-.08,0-.22.11-.12.16,1.42.79,2.51,2.88,3.41,4.15l0,0h-.13c-.12,0-.37.33-.14.33a1.56,1.56,0,0,1,.68.22c1.14,1.57,2.31,3.11,3.47,4.65l.55.76c1.47,2.36,2.84,4.76,4.18,7.19.15.27.29.54.43.82-1.72-2.46-3.49-4.88-5.38-7.22-2.83-3.5-6.07-7.3-10.2-9.46-.06,0-.18.08-.13.13a111.94,111.94,0,0,1,9.57,10c1.36,1.72,2.66,3.46,4,5.21a38.6,38.6,0,0,0-8.72-7.22c-.07,0-.24.13-.16.18a50.74,50.74,0,0,1,5.35,4.66.59.59,0,0,0-.21.29c0,.16,0,.23.11.37s0,0,.08,0a18,18,0,0,1,1.15,1.41c-.89-.61-1.8-1.21-2.73-1.78a31.94,31.94,0,0,0-5.05-5.38c-.28-.23-.81.28-.7.57a3.35,3.35,0,0,0,.65,1.29c.08.14.28,0,.38-.11.49.57,1,1.17,1.43,1.79-.59-.31-1.16-.61-1.75-.89a20.52,20.52,0,0,0-5.3-4.75c-.23-.13-.64.32-.55.53a5.33,5.33,0,0,1,.37.85c.07.16.3,0,.37-.17.85.74,1.65,1.52,2.43,2.33-.94-.39-1.89-.77-2.84-1.11a28.18,28.18,0,0,0-5.45-4.46c-.15-.1-.34,0-.45.16l-.16.2c-.05.06-.1.17,0,.23l.28.43c.07.13.26-.07.25-.17-.13-.48-.1-.49.1,0,.47.37.95.75,1.41,1.14l.31.28a11.63,11.63,0,0,0-1.07.64l-1.16-.31a11.94,11.94,0,0,0-5.21-3c-.19,0-.54.2-.43.41a1.34,1.34,0,0,0,.62.65c.09.06.25-.06.27-.16a16.21,16.21,0,0,1,2.42,1.57c-.91-.21-1.83-.41-2.75-.59-.15-.13-.28-.28-.44-.41-1.07-.91-2.7-2.2-4.25-1.94-.15,0-.37.24-.31.41a1.79,1.79,0,0,0,.62.88c.11.09.32-.12.24-.23s-.1-.29-.16-.44a7.5,7.5,0,0,1,2.91,1.47c-1-.18-2-.33-3-.48a29.42,29.42,0,0,0-2.63-1.6c-.43-.24-2.82-1.53-2.85-.2-.42-.24-.84-.47-1.27-.69-.93-.48-2.72-1.4-3.56-.32-.13.16.05.22.17.1.83-.81,3.74,1.18,4.4,1.58l1.07.63-1.06-.08c-2.08-1.16-5-1.91-7.21-.6-.06,0-.07.13,0,.1,1.79-.77,3.77-.12,5.62.4-3-.15-6-.17-9,0,0,0-.12.11,0,.12,1.3.06,2.59.19,3.88.31-.43.28-.82.6-1.12.84a10.75,10.75,0,0,0-5.23,2c-.07,0,0,.11,0,.07a13.93,13.93,0,0,1,4.74-1.72,11.68,11.68,0,0,0-3.44,4c-.1.21.14.19.26.09,1.49-1.25,2.73-3.17,4.39-4.36l.44-.1c.06,0,.18-.18.06-.17h-.11a5,5,0,0,1,1.33-.59c.62.07,1.25.18,1.87.27a13.55,13.55,0,0,0-2.19,1.71c-.54.49-1.06,1-1.58,1.55a19.76,19.76,0,0,0-1.93,1.5c-.14.13-.06.33.14.2s.37-.2.56-.32c-.31.37-.64.74-.93,1.11-.09.12,0,.17.14.09.61-.55,1.18-1.13,1.73-1.73a34.39,34.39,0,0,1,4.31-2.12,24.33,24.33,0,0,0-3.78,4.72c-.09.17.14.18.22.08.37-.36.7-.74,1-1.12a.16.16,0,0,0,.19,0c1.3-.82,2.57-1.72,3.89-2.53a16.82,16.82,0,0,0-3.81,5c-.07.16.14.12.21,0,.49-.63,1-1.26,1.48-1.87,0,.11,0,.21.16.12,1.36-.76,2.68-1.57,4.06-2.29a13.79,13.79,0,0,0-3,4c-.07.17.13.18.22.07,1.29-1.34,2.46-2.78,3.72-4.14.25-.27.54-.51.8-.77A9.33,9.33,0,0,1,577,825c0,.19.3,0,.32-.11.16-.95-1.11-.42-1.74-.15l.3-.29c.12-.09.28-.25.47-.41l1.88.47a17.36,17.36,0,0,0-2.75,2.47c-.18.18-.35.38-.54.56a14.82,14.82,0,0,0-4.81,3.42c-.11.14,0,.25.18.15,1.09-.71,2.21-1.39,3.33-2.07a15.24,15.24,0,0,0-2.06,3.13c-.09.19.13.2.24.09,1.12-1.24,2.05-2.6,3.12-3.87.1-.13.24-.23.35-.36a13.07,13.07,0,0,1,4-1.87c-.28.28-.56.58-.81.88a30.14,30.14,0,0,0-2,2.54,26.75,26.75,0,0,0-3.65,3.21c-.13.14-.06.35.15.21.84-.57,1.67-1.16,2.5-1.74-.08.14-.17.29-.24.44s.19.16.29.06c.35-.4.66-.81,1-1.22a29.94,29.94,0,0,1,4-2.34A29.24,29.24,0,0,0,577,832.9c-.1.16.11.17.21.08,1.45-1.56,2.73-3.25,4.16-4.82.18-.19.39-.36.58-.55s.44-.18.68-.26c0,.11,0,.19.17.12.46-.18.93-.37,1.4-.54a1,1,0,0,0,.4-.46c.26.24.52.49.78.7a.08.08,0,0,0,.11,0,32.79,32.79,0,0,0-3.4,3.77,26.45,26.45,0,0,0-8,6.59c-.12.15.05.22.17.1a57,57,0,0,1,6.72-5.2c-.78,1.08-1.51,2.17-2.2,3.22-.1.16.06.23.17.12,1.25-1.37,2.37-2.81,3.49-4.25a41.24,41.24,0,0,1,5.31-2.68,31.37,31.37,0,0,0-6.32,9.19c-.11.24.2.17.3.05.34-.42.67-.85,1-1.29-.12.19-.28.35-.39.53s.15.32.32.19c1.43-1.07,2.75-2.27,4.16-3.37a17.38,17.38,0,0,0-2.68,5.56c0,.24.27.07.32,0a66.89,66.89,0,0,1,3.46-6l.46-.7a21,21,0,0,1,2.48-1.43c.73-.36,2.4-.64,2.77-.94-.18.15-.16.45.11.27a5.79,5.79,0,0,0,.72-.5l.44.21A16.53,16.53,0,0,0,591.5,834a13.13,13.13,0,0,0-5.43,4.56c-.14.22.16.2.28.09a34.22,34.22,0,0,1,3.79-2.86,27.13,27.13,0,0,0-3.8,7c-.07.2.21.1.28,0,1.74-2.68,3.28-5.55,5.24-8.07.79-.45,1.61-.88,2.45-1.28s1.44-.64,2.15-1c.07,0,.58-.24,1.13-.44l.46.24c-1.29.31-3.26,2.82-4.95,5.39a17.29,17.29,0,0,0-1.81,2c-.14.18,0,.32.19.2s.35-.25.52-.38a18.85,18.85,0,0,0-2,4c0,.24.26.06.31,0,1-1.67,2-3.33,3-4.95,1-.78,2.07-1.56,3.16-2.28a25,25,0,0,1,3.06-1.75,16,16,0,0,0-2.07,2.46,23.07,23.07,0,0,0-3.31,6.8c-.07.26.28.11.37,0a42.56,42.56,0,0,0,2.65-4.41c1.09-.74,2.29-1.39,3.39-2,.26-.17.58-.32.91-.49a40.15,40.15,0,0,0-3.31,4.89,8.5,8.5,0,0,0-2,2.46c-.11.22.11.27.28.18s.31-.23.48-.34a18.42,18.42,0,0,0-1.77,4.24c0,.24.35,0,.4,0,1.25-1.85,2.26-3.82,3.36-5.73.73-.63,1.44-1.28,2.17-1.86a26.79,26.79,0,0,1,3.21-2.37c-.3.4-.54.77-.73,1a27.8,27.8,0,0,0-3.86,6.8,9.23,9.23,0,0,0-1.07,1.59c-.16.28.19.25.34.12,1.55-1.34,3-2.65,4.54-3.85-.49.92-.93,1.85-1.33,2.73l-.22.21c-.14.13-.08.24,0,.24a26.12,26.12,0,0,0-1.3,3.48,5.4,5.4,0,0,0-1.35,2c-.05.3.32.14.42,0,.39-.47,2.17-2.15,4.28-4a.36.36,0,0,1,0,.07,18.59,18.59,0,0,0-2.92,3.64c-.16.27.21.24.35.12.56-.49,1.11-1,1.65-1.49-.26.7-.51,1.4-.73,2.12-.07.22.26.1.33,0a33.85,33.85,0,0,0,1.8-3.39c1-.93,2-1.86,3.12-2.72a12.79,12.79,0,0,1,1.13-.8,47.46,47.46,0,0,0-2.46,5.13,8.26,8.26,0,0,0-1.69,3.18c-.07.23.24.1.31,0l.37-.45c-.25.77-.5,1.55-.7,2.32-.06.26.31.07.37,0a36.35,36.35,0,0,0,2.06-4.41l1.29-1.48a19.77,19.77,0,0,1,2.67-2.75c-2.51,3.92-5,8.66-4.92,9.9,0,.22.34,0,.39-.09.45-1,3.12-6.39,5.56-10.44a1.59,1.59,0,0,1,1-.16c.16,0,.44-.24.25-.32a1.74,1.74,0,0,0-.89-.16q.63-1,1.2-1.83c.27.32.52.67.78,1a22.19,22.19,0,0,0-3.77,6.45,12.6,12.6,0,0,0-1.82,2.88c-.1.22.16.22.28.11l.62-.61-.65,2c0,.21.24.1.31,0a26,26,0,0,0,1.93-3.65,19.17,19.17,0,0,1,4.37-3.93,2.42,2.42,0,0,1-.4.39c-.22.2-.07.51.21.3.47-.34.81-.56,1-1,.17.27.31.55.47.83,0,0,0,.06,0,.08-.19.28-.36.55-.53.85a8.68,8.68,0,0,0-3.92,4.68c-.09.21.23.14.31.06,1-.92,1.76-2,2.68-3h.07a16.43,16.43,0,0,0-1.06,3.86,14.51,14.51,0,0,0-1.29,2.78c-.1.28.32.13.41,0,.25-.34.53-.64.78-1,.15.12.57-.19.61-.36s.12-.41.18-.62c.66-.76,1.3-1.54,2-2.3V996.88H624V860.71a17,17,0,0,0,0-1.89v-8.54c0-.06,0-.13,0-.19a30,30,0,0,1,1.51-4.09,4.51,4.51,0,0,0,.22-.44c1.33,2.18,2.57,4.39,3.79,6.62.08.14.31-.07.28-.18a15.39,15.39,0,0,0-3.86-6.84l.21-.4c2.09.73,3.68,2.75,4.88,4.38,1.5,2,2.78,4.2,4.37,6.17.13.16.44-.17.4-.32-.89-2.82-3.22-7.81-6.51-9.93,2,.91,4,2,6,3q3.18,1.73,6.17,3.72a13.43,13.43,0,0,0,3.58,2,.44.44,0,0,0,.49-.39c-.1-1.5-2.14-2.75-3.27-3.49a77.92,77.92,0,0,0-7.15-4.12c-1.2-.62-5.71-3.14-8-2.61.12-.22.27-.42.4-.62,3.63-.4,7.34,1.6,10.38,3.23,3.23,1.73,6.15,4,9.47,5.59.16.07.46-.23.31-.35-.48-.44-1-.81-1.52-1.21a14.62,14.62,0,0,0,2.66.9c.18,0,.59-.27.38-.43-3-2.48-6.66-4.38-10-6.31-3.15-1.78-6.7-3.42-10.42-3.25.44-.61.91-1.21,1.39-1.81,7.71,1.34,13.05,7.37,19.48,11,0,0,.09,0,.14,0s.2.17.3.24.52-.19.37-.34a81,81,0,0,0-8.05-7.66c-2.54-2.06-5.85-4.43-9.33-4.48-.11,0-.34.23-.19.29a28,28,0,0,1,9.54,5.66c-.75-.47-1.5-.94-2.25-1.39-2.94-1.8-6.31-3.42-9.88-3.51.64-.77,1.29-1.51,2-2.23.17-.17.36-.34.53-.53a37.08,37.08,0,0,1,8.67,4.47c2.91,2,5.61,4.65,8.88,6,.2.08.49-.24.37-.4a13.65,13.65,0,0,0-1.93-2c-2.81-2.81-5.94-5.93-9.52-8,2,1.16,3.93,2.39,5.8,3.69,1.47,1,2.87,2.13,4.25,3.26l1,1.11c.07.06.17,0,.23-.07,1.55,1.3,3.1,2.59,4.7,3.82.14.1.39-.15.3-.27a41.71,41.71,0,0,0-7.66-7.25,42.48,42.48,0,0,0-3.84-3.87c-2-1.76-4.49-3.65-7.25-4.13.41-.34.84-.67,1.26-1a80.59,80.59,0,0,1,8.92,6.37c3.22,2.71,6,5.88,9.2,8.58.16.13.54-.2.44-.36-2.11-3.6-5.37-6.52-8.6-9.2a30.07,30.07,0,0,0-9.47-5.78c.85-.64,1.72-1.27,2.6-1.88,2.55,1.77,4.54,4.4,6.65,6.56,3,3,5.5,6.37,8.89,9,.18.14.51-.2.38-.37A79.84,79.84,0,0,0,648.07,834c-2-1.91-4-4.13-6.52-5.31.57-.39,1.16-.77,1.76-1.15a67.36,67.36,0,0,1,6.77,7c2.16,2.84,4,5.88,6.55,8.42.15.15.5-.17.42-.33a64.3,64.3,0,0,0-5.37-8.63c-1.95-2.59-4.57-5.81-8-6.66.95-.59,1.89-1.15,2.86-1.69a155.35,155.35,0,0,0,12.05,16.15c.13.16.49-.19.41-.35-1-2.07-2.21-4.2-3.51-6.25l3.28,4.5c.1.21.21.41.33.63s.1.06.15,0c.53.7,1,1.43,1.56,2.12.13.17.47-.18.41-.32a27.51,27.51,0,0,0-3.16-5.94,62,62,0,0,0-5.39-9.41c-.28-.41-2.14-3.49-2.82-2.54,0,.07,0,.1.09,0s3.82,5.83,3.93,6,.27.46.4.69c-1.58-2.14-3-5.23-5.48-6.64,1.24-.65,2.51-1.27,3.78-1.86a9.16,9.16,0,0,1,1.86,2.6c.49.83.93,1.69,1.36,2.56-1.17-1.6-2.33-3.21-3.33-4.87-.05-.09-.21,0-.19.12,1.12,3.39,3.36,6.28,5.49,9.21,1.07,2.66,2,5.36,3.33,7.91.08.16.34-.06.33-.18a22.76,22.76,0,0,0-.71-3.15c.13.25.29.49.41.73s.31-.06.27-.18a21.84,21.84,0,0,0-2-4.29c-.5-1.23-1-2.44-1.58-3.63-.86-1.88-2.33-6-4.75-7.06.48-.21,1-.43,1.43-.66l1.08-.46a65.37,65.37,0,0,1,3.77,8.12c-1.15-2.46-2.63-4.83-3.71-7.31-.11-.26-.58.11-.56.31.71,3.9,3.68,7.17,5.34,10.72.06.15.3-.06.27-.17s-.16-.5-.24-.75c.9,2.28,1.82,4.56,2.9,6.79.09.18.36-.09.33-.23-1.13-6-3.32-12.94-7.71-17.64.57-.24,1.11-.49,1.69-.72.75,1.86,1.71,3.65,2.52,5.49s1.54,3.63,2.37,5.43c.71,2.17,1.44,4.36,2.29,6.51.06.15.34-.07.32-.19a66.78,66.78,0,0,0-3.34-12.08c-.63-1.66-.94-4.55-2.5-5.83l.9-.35c-.07.06-.12.15-.09.2,2.57,5.09,4.12,10.48,5.7,15.9,0,.15.33-.06.32-.19-.19-1.56-.45-3.2-.78-4.83.66,2.47,1.31,5,2.16,7.37.07.21.37-.09.37-.2.29-3.57-1.13-7.49-2.19-10.85-.41-1.31-1.84-7.51-4.14-7.17-.06,0-.2.16-.1.18.78.21,1.27,2.33,1.49,3s.36,1,.53,1.52a18.36,18.36,0,0,0-3-4.94.11.11,0,0,0-.08,0c.84-.32,1.67-.64,2.51-.94,1.72,3.44,3.24,6.95,4.68,10.49a32.5,32.5,0,0,0,1.43,5c.07.17.39-.08.37-.21-.11-.65-.25-1.3-.36-1.95,0-.05.1-.13.08-.18-.21-1.17-.47-2.35-.8-3.52-.17-.83-.34-1.67-.54-2.5-.59-2.6-1.37-5.61-3.15-7.75,1-.37,2.09-.72,3.15-1.07,1.53,5.26,1.59,11,3.7,16,.09.19.42-.08.41-.22-.7-5.25-1.41-11-3.72-15.92l2.2-.69a.41.41,0,0,0-.1.2c.63,2.89,1.65,5.7,2.3,8.59.71,3.07,1.34,6.16,2.12,9.21.05.19.41-.09.4-.22-.06-.63-.11-1.25-.17-1.86.09.21.45-.11.45-.26a71.76,71.76,0,0,0-1.21-9.1c-.4-2-.83-5.84-3.11-6.76.87-.26,1.73-.51,2.6-.74,1.36,6.06,4,11.77,5,18,0,.22.37,0,.37-.17a33.82,33.82,0,0,0-5.09-17.87c1.12-.31,2.25-.59,3.38-.87C679,820.2,680,826.71,681.82,833c0,.19.4-.07.39-.21-.67-6.28-1.26-13.43-4.6-19.05q2.73-.67,5.47-1.2c1,4.91,1.45,9.84,2.19,14.8,0,.23.37,0,.37-.16.19-4.82-.18-10.15-2-14.74,1.22-.23,2.45-.44,3.68-.64.23,4.77.18,9.64.74,14.36,0,.2.29,0,.31-.13.5-4.55.88-9.85-.58-14.3l2.3-.33c.05,2.17.37,4.32.34,6.51a41.84,41.84,0,0,0,0,7.34c0,.25.4,0,.41-.15a51.06,51.06,0,0,0,.49-7.62c0-1.68.3-4.6-.86-6.13,1.14-.16,2.3-.29,3.45-.39a78.37,78.37,0,0,0,0,10.28c0,.17.27,0,.29-.1a39.28,39.28,0,0,0,.07-10.22c.88-.09,1.78-.16,2.66-.22.45,4.26-.23,8.38-.3,12.65,0,.18.27,0,.28-.11.87-3.61,2.2-8.94.5-12.57.95-.06,1.91-.11,2.84-.14-.73,2.06-.58,4.47-.72,6.61a68.68,68.68,0,0,0-.26,8.11c0,.26.4,0,.44-.15a44.75,44.75,0,0,0,1.11-7.89c.12-1.93.78-4.83-.05-6.7,1,0,2.08,0,3.12,0a28.23,28.23,0,0,0-1.37,11.73c0,.2.33,0,.35-.13.54-3.82,1.31-7.74,1.5-11.6.49,0,1,0,1.5,0,.07,0,.16-.14.07-.14C705.46,810.35,704.94,810.35,704.43,810.34Zm-56.52,12.8c-.76.39-1.5.78-2.24,1.18q.36-.44.75-.87a13.79,13.79,0,0,1,1.45-1.41l.73-.24A5,5,0,0,0,647.91,823.14Zm-5.42,3a19.56,19.56,0,0,1,3.27-3c.07,0,.19-.3,0-.24-1.91.57-3.58,2.28-4.85,4v0a.56.56,0,0,0-.2-.33c.38-.37.78-.75,1.15-1.13.1-.1.11-.34-.09-.24a11.07,11.07,0,0,0-1.81,1.16,7.09,7.09,0,0,0-2.36.66c1.47-1,2.93-2,4.5-2.86.62-.35,1.25-.66,1.89-1,.85-.28,1.71-.54,2.57-.8a9.9,9.9,0,0,0-1.78,2.36C644,825.22,643.25,825.67,642.49,826.13Zm-6.9,4.65c.43-.65.84-1.32,1.33-1.94a6.26,6.26,0,0,1,.9-.88l.9-.42a10.75,10.75,0,0,0-1.67,2.17C636.57,830.07,636.07,830.41,635.59,830.78Zm-6.22,5.62a3.57,3.57,0,0,0-.47,0c.36-.41.74-.82,1.13-1.21.13.06.27.1.4.15C630.07,835.66,629.72,836,629.37,836.4Zm-2.55,3c.12-.3.22-.58.35-.87.4-.56.82-1.09,1.25-1.61l.45,0C628.16,837.7,627.47,838.52,626.82,839.36ZM608,838.88l.8.71a10.85,10.85,0,0,0-2.47,1.1A7.68,7.68,0,0,1,608,838.88Zm5.31-24.54.64,1.44a.16.16,0,0,0,0,.09c0,.2.06.4.08.59-.24-.63-.47-1.28-.71-1.92C613.32,814.47,613.3,814.4,613.29,814.34Zm18.82,3.56a34.12,34.12,0,0,0,2.85-2.53,1.79,1.79,0,0,1,0,.23c-.7.68-1.29,1.32-1.71,1.74s-1,1.14-1.55,1.72C631.82,818.67,632,818.28,632.11,817.9Zm.47,15.39c-.05-.09-.08-.17-.12-.24l.12-.1.06,0a1.21,1.21,0,0,0,.1.14.09.09,0,0,0,0,.06A1.54,1.54,0,0,0,632.58,833.29Zm-15-.67c0-.3,0-.62,0-.93,0,0,0,.08,0,.11,0,.37.05.73.08,1.1C617.69,832.82,617.66,832.72,617.63,832.62ZM622.1,830a50.5,50.5,0,0,0,1.42,5.7c0,.2,0,.4,0,.6-.14.58-.27,1.18-.42,1.77-.34-1.7-.85-3.39-1.26-5.07-.08-.33-.13-.67-.2-1C621.8,831.32,621.94,830.66,622.1,830Zm1.29-4.48a30.83,30.83,0,0,0,1.09,6.4,10.76,10.76,0,0,0-.52,1.23c-.19-1.22-.48-2.43-.76-3.69q-.24-1-.42-2c.05-.18.09-.35.15-.54C623.07,826.41,623.24,826,623.39,825.51Zm1.75-4.55A24.19,24.19,0,0,0,626,828c-.27.83-.52,1.67-.78,2.5l-.1.2c-.18-2.28-.6-4.57-.88-6.85,0-.18,0-.36-.06-.53C624.5,822.56,624.81,821.76,625.14,821Zm5.13,1.92c.44-.61.88-1.21,1.32-1.79-.11.27-.19.55-.3.85,0,.09.07.07.14,0-.1.43-.2.84-.29,1.27s-.42.62-.63.93l-.37.36a5.5,5.5,0,0,0-.07-1.08C630.13,823.26,630.21,823.07,630.27,822.88Zm-1.71,5.42c.09-.13.17-.26.27-.38a9.73,9.73,0,0,0-.28,1.54c0,.06,0,.06.07.06-.31.52-.6,1-.88,1.56C628,830.16,628.28,829.23,628.56,828.3Zm6.11.09c-.15.17-.33.32-.47.5a.52.52,0,0,0-.12.07l.4-.41Zm-1.75,2a4.17,4.17,0,0,0,.69-.29,1.55,1.55,0,0,0,.06.31,6.15,6.15,0,0,0-1.44.59c.19-.21.35-.42.54-.62A.23.23,0,0,0,632.92,830.37Zm1.44.25c0,.11,0,.23,0,.37a3.21,3.21,0,0,0-.12-.33Zm-3,2.33-.87.55,0,0c.42-.39.85-.74,1.29-1.09a1.74,1.74,0,0,0,0,.22Zm-1.59-6.11c.27-.3.53-.61.83-.9,0,.16-.06.32-.09.46-.47.76-.94,1.52-1.38,2.27A17.83,17.83,0,0,0,629.75,826.84Zm4.29-3.73-.53.75c.16-.24.31-.46.46-.7Zm-2,5.68.07-.08v0S632.06,828.77,632,828.79Zm0,3.42.1-.08a1,1,0,0,1,.14.22l-.14.08C632.11,832.36,632.07,832.29,632,832.21Zm4.73-10.64a0,0,0,0,1,0,0,0,0,0,0,0,0,0Zm-1.34-.63.2-.28a1.82,1.82,0,0,0-.15.27ZM622,843.1c0,.1,0,.19-.05.3q-.23-3.23-.51-6.47c0-.54-.11-1.09-.17-1.64a23.92,23.92,0,0,0,1.48,4.64C622.45,841,622.18,842,622,843.1Zm10.62-11.28c.4-.29.8-.56,1.2-.83,0,.18.07.36.11.53a10.32,10.32,0,0,0-1.06.51Zm1.47-1.81s0,.06,0,.08a.91.91,0,0,1-.09-.17l.19-.1C634.1,829.89,634,829.94,634.05,830Zm-.27-4.22c.44-.68.9-1.34,1.37-2a26.46,26.46,0,0,1,2.58-2c-.83.93-1.63,1.88-2.42,2.84C634.8,825,634.29,825.38,633.78,825.79Zm3.92-7.22q-.6.36-1.17.78l.47-.67c.44-.31.89-.61,1.36-.88C638.14,818.05,637.91,818.31,637.7,818.57Zm-3.1.6c.24-.72.46-1.44.63-2.18.53-.52,1.07-1,1.63-1.51a22.89,22.89,0,0,0-.72,2.31A18.3,18.3,0,0,0,634.6,819.17Zm-.47.47c-.3.3-.55.61-.82.91a16.51,16.51,0,0,0,.24-1.82c.32-.33.61-.67.94-1C634.34,818.37,634.22,819,634.13,819.64Zm-1.32-.11s0,0,0,0c-.17.72-.35,1.46-.5,2.19-.12.14-.23.29-.33.43a14.52,14.52,0,0,0,.1-1.46c0-.08,0-.1-.1-.09C632.27,820.2,632.53,819.84,632.81,819.53Zm-1.93,14.82c.37-.32.73-.65,1.11-1,0,.12.08.22.12.33-.32.27-.64.56-.94.85Zm2.85-2.1a1.62,1.62,0,0,0-.22,0c.16-.1.34-.2.5-.31a.19.19,0,0,0,0,.1l-.28.22Zm1.46-2.08a1.69,1.69,0,0,0-.23-.54c-.05-.11-.13-.12-.26-.11l.84-.42c0,.07,0,.16.07.25A4.55,4.55,0,0,0,635.19,830.17Zm.63-1.17v0l.07,0Zm2.46-3.35-.66.15,1.56-.68ZM637,821.44c.12-.11.3-.32.26-.46l1.09-1.38.09-.07a13.66,13.66,0,0,1,2.92-1.55c-.73.73-1.43,1.46-2.13,2.22A10,10,0,0,0,637,821.44Zm7.11-6.14a4.1,4.1,0,0,0-1.45,1.15,9.59,9.59,0,0,0-2.26.71c.68-.76,1.35-1.51,2-2.26a8,8,0,0,1,3.17-1C645.06,814.37,644.55,814.83,644.06,815.3Zm-7.36,2.07c.27-.82.55-1.63.81-2.46.26-.22.55-.46.87-.69a11.27,11.27,0,0,0-.39,1.49c-.4.53-.79,1-1.18,1.59Zm2.5-3.69.53-.27c-.27.33-.52.68-.78,1C639,814.18,639.13,813.93,639.2,813.68Zm1.8-1.82c-.19.23-.39.46-.57.69a2.58,2.58,0,0,0-.83,0c.17-.51.35-1,.49-1.52a4.06,4.06,0,0,1,1.27-.58A10.54,10.54,0,0,0,641,811.86Zm-2.12.89a6.51,6.51,0,0,0-.82.37,2.11,2.11,0,0,0,.06-.6c.37-.32.76-.63,1.15-.91C639.14,812,639,812.37,638.88,812.75Zm-1.13.08a3,3,0,0,1-.12.55,16.53,16.53,0,0,0-2.12,1.67,1.28,1.28,0,0,1,0-.19l.41-.38C636.16,814.27,636.88,813.58,637.75,812.83Zm-11.07,13.24c-.07.23-.16.45-.24.67-.23-2.14-.46-4.29-.53-6.46v-1.19c.15-.38.29-.78.43-1.16a41.39,41.39,0,0,0,.67,7.13A2.72,2.72,0,0,0,626.68,826.07ZM624,821.3c-.09-1-.16-2-.25-3.07.37-1,.72-1.92,1.15-2.87.09-.22-.19-.12-.26,0-.36.58-.68,1.16-1,1.75l-.09-.74c.58-1.29,1.13-2.58,1.64-3.89.05-.09.08-.17.13-.26-.11,2.24-.16,4.51-.17,6.76C624.73,819.73,624.34,820.51,624,821.3ZM622,820c.3-.79.63-1.57,1-2.34,0,.24,0,.49,0,.73-.41.87-.8,1.76-1.14,2.66,0-.15,0-.28-.06-.42S621.93,820.19,622,820Zm1,.06c0,1,.11,2.05.19,3.06-.27.67-.55,1.35-.78,2-.12-.77-.24-1.55-.33-2.33C622.37,821.88,622.67,821,623,820Zm-1.37,7.49c-.17.57-.31,1.16-.44,1.74-.12-.81-.24-1.61-.38-2.43.16-.54.3-1.11.47-1.66C621.37,826,621.48,826.75,621.63,827.53Zm-4.48-1.9c-.15-.46-.28-.92-.44-1.37v-.1c.13.35.25.69.41,1A3.37,3.37,0,0,0,617.15,825.63Zm-1.67.14c.11.73.22,1.45.34,2.16l-.05-.12c-.17-.88-.33-1.77-.5-2.65Zm1.72,10.68c0-.1,0-.21,0-.31.12.1.43-.15.43-.31s0-.51,0-.77l.33.74c0,.57.1,1.15.14,1.72.09.87.14,1.73.21,2.6C618,838.88,617.59,837.66,617.2,836.45Zm-11.4.68s0,0,0,0h0Zm3.78,3.2a3.39,3.39,0,0,1,.34.31l-1.46,1c.27-.42.56-.82.86-1.22Zm.64.59c.38.37.76.77,1.13,1.16l-.29.37a28.38,28.38,0,0,0-4.64,3c.39-.84.8-1.66,1.24-2.46A30.43,30.43,0,0,0,610.22,840.92Zm1.71,1.74.28.33a5.31,5.31,0,0,0-1,.3c.11-.16.24-.33.36-.49A2,2,0,0,1,611.93,842.66ZM640.33,827c.16,0,.29,0,.33.11s.08.05.12,0l-1.54,1C639.59,827.79,640,827.4,640.33,827Zm5.54-5.42c-1.22.37-2.41.76-3.58,1.16l-1.37.5,1.22-.8c.42-.15.83-.31,1.27-.44A10.15,10.15,0,0,1,645.87,821.61Zm-5.69.86c-.08-.38-.5-.37-1.08-.16l.76-.81,1.17-.69a2.73,2.73,0,0,1,.64.27c.09.06.28-.09.23-.2a1.49,1.49,0,0,0-.28-.41l1.28-.75c2.39-1,4.88-2,5.51-1.79-2.38,1.24-4.77,2.56-7,4C641,822.11,640.57,822.29,640.18,822.47Zm8.56-4.71a.62.62,0,0,0-.19-.23c.52-.19,1-.34,1.58-.48C649.67,817.28,649.21,817.53,648.74,817.76Zm-5.07.62-1.4.62c.65-.65,1.33-1.28,2-1.92.12,0,.25,0,.37,0s.29-.14.2-.21a2.15,2.15,0,0,0-.26-.14l.28-.26,4.67-2.74c1.71-.73,3.66-1.44,4-.91.07.12.24,0,.21-.14-.05-.28-.42-.39-1-.38a18.93,18.93,0,0,1,3.8-.65C652.32,813.87,647.78,815.87,643.67,818.38Zm7.06-6.39c1-.62,2-1.21,3-1.82a26.26,26.26,0,0,1,3.68-1.32,56.36,56.36,0,0,0-5.95,2.9Zm12.1-6.84a59.48,59.48,0,0,0-8.88,4,2.29,2.29,0,0,0-.37.2.16.16,0,0,0-.07.07l-.87.37c.37-.29.72-.59,1.09-.87,1.43-.83,2.88-1.61,4.33-2.4S661.38,805,662.83,805.15Zm-4.7.49.62-.46c.18,0,.37-.06.53-.09Zm18.76-10.15H677a37,37,0,0,0-4.92,1.56,22.73,22.73,0,0,0-3.05,1.26l-.23.09c1.33-.85,2.68-1.67,4-2.49A23.22,23.22,0,0,0,676.89,795.49Zm2.3-3.41a19.65,19.65,0,0,0,2.13-.34s0,.06,0,.09l-.33.06-2,.34Zm-31.06,19.55-2.26,2a6.33,6.33,0,0,0-3,.72,3,3,0,0,0,.25-.25c.82-.56,1.68-1.06,2.56-1.55,0,.08,0,.12-.31.42-.11.11,0,.22.11.11a2.36,2.36,0,0,0,.79-1c.06-.15.08-.37-.16-.38a2.38,2.38,0,0,0-.59.07A4.45,4.45,0,0,1,648.13,811.63Zm.59-4.08c.33-.18.67-.35,1-.51l-1.32,1.07a8.33,8.33,0,0,0-1.31.37C647.64,808.17,648.18,807.84,648.72,807.55Zm-1.55,1.62c-.94.8-1.85,1.61-2.76,2.45a9.5,9.5,0,0,0-4.49,3.23c-.1.15,0,.28.18.16.73-.51,1.71-1.26,2.79-1.93l-.09.09a7.67,7.67,0,0,0-2.75,2.41c0,.11,0,.25.11.26L640,816l-.32.2a3.47,3.47,0,0,0-1.09.19c.79-1.1,1.59-2.19,2.42-3.26h.17c.06,0,.22-.1.15-.16l-.14-.07c.2-.24.39-.49.58-.73A45.27,45.27,0,0,1,647.17,809.17Zm-3.83,0c-.37.4-.76.78-1.11,1.18.58-1.3,1.09-2.62,1.54-4l1.05-.49A13.43,13.43,0,0,0,643.34,809.17Zm-.46-2.35s0,0,.06,0a27.46,27.46,0,0,0-1.41,3.13,2.07,2.07,0,0,0-1.25.11c-.06-.14-.37,0-.44.13h0c-2.08.89-5,3.39-6.83,5.44.24-.59.5-1.18.76-1.76,1.71-1.54,3.2-3.27,5.07-4.69A23.78,23.78,0,0,1,642.88,806.82Zm-6.19.88a1.8,1.8,0,0,0-.14.54s0,0,.05.07l-.58.53c.16-.31.33-.64.48-1C636.57,807.83,636.62,807.76,636.69,807.7ZM649,792.86c1.15-.71,5.36-3.57,8-3.88a97.89,97.89,0,0,0-14.06,8l-.66.37a.36.36,0,0,1,.07-.1C644.58,795.84,646.72,794.27,649,792.86ZM656,781.62l.77-.35a54.53,54.53,0,0,0-4.92,4A22.58,22.58,0,0,0,650,786.6c1-1.13,1.93-2.24,2.94-3.33C654,782.72,655,782.15,656,781.62Zm-1.48-2.06.13,0-.69.69c.14-.26.26-.51.38-.77C654.38,779.52,654.42,779.59,654.56,779.56Zm-2.85,1.71a12.19,12.19,0,0,0-.51,1.51l-.13.07-.1,0C651.21,782.36,651.46,781.81,651.71,781.27Zm-9.59,13.28.07,0-.1.14A.38.38,0,0,0,642.12,794.55Zm-6.5,9.81c.38-.35.76-.68,1.15-1-.45.8-.88,1.59-1.3,2.39C635.51,805.28,635.56,804.82,635.62,804.36Zm-5.74,12.5c.19-.22.39-.42.58-.63-.19.44-.37.91-.56,1.37C629.89,817.35,629.88,817.11,629.88,816.86Zm-3.68-6.64c0,1.46.13,2.93.13,4.29,0,.8,0,1.62,0,2.42-.16.25-.3.51-.44.76a54.6,54.6,0,0,0-.22-6.28C625.84,811,626,810.62,626.2,810.22Zm-5.05,12.18c0,.17,0,.34,0,.51-.23.7-.46,1.42-.65,2.13,0-.1,0-.19,0-.28C620.67,824,620.9,823.18,621.15,822.4Zm-4-19.82a2.81,2.81,0,0,0-.08.31,1,1,0,0,1,0-.24A.34.34,0,0,0,617.17,802.58Zm-.82-8.93a8.41,8.41,0,0,0-.21,1c-.06-.61-.13-1.22-.19-1.83,0-.1,0-.21.09-.31C616.14,792.86,616.24,793.25,616.35,793.65Zm.1-10.45c-.15.36-.29.72-.41,1.08a28.93,28.93,0,0,1,1.13-3.83C616.89,781.37,616.65,782.29,616.45,783.2Zm-1.4-7.7c-.07-.27-.16-.54-.24-.81,0,0,.12,0,.15-.05l.15-.45a9.75,9.75,0,0,0,0,1.62C615.1,775.7,615.08,775.6,615.05,775.5Zm-.48-4.35c.17.61.32,1.22.54,1.81,0,0,0,0,0,0-.12.56-.24,1.12-.33,1.66,0-.15-.09-.31-.14-.47C614.62,773.16,614.59,772.16,614.57,771.15Zm.53,11.51a1.59,1.59,0,0,0,.18.27c.06.06.2-.07.2-.13a5.36,5.36,0,0,1-.06-.69c.05.24.12.47.16.69,0,.06,0,.07.09.09a16.71,16.71,0,0,0-.33,2,3.18,3.18,0,0,1-.09-.33.48.48,0,0,0,0-.17C615.16,783.78,615.13,783.22,615.1,782.66Zm1.35,33.76c.07.75.12,1.51.17,2.26-.41-1.3-.88-2.57-1.35-3.81-.11-.31-.24-.63-.35-.93-.18-1.1-.36-2.19-.55-3.28C615.16,812.56,615.83,814.48,616.45,816.42ZM612,805.35c.1.24.21.47.32.7a.1.1,0,0,1,0,0c.05.08.08.16.14.24l.5,1.13a11.77,11.77,0,0,1,.43,2.81c-.25-.52-.51-1-.78-1.52C612.45,807.61,612.26,806.48,612,805.35Zm-3.41,6.42c0,.06,0,.13.07.2.64,1.86,1.23,3.75,1.84,5.64.33,3.17,2,6.22,3.27,9.1l.37.78c.07.41.14.82.22,1.23a79.53,79.53,0,0,0-3.7-7.46.1.1,0,0,0,.08-.1C609.91,818.09,609.3,814.91,608.59,811.77Zm-23.5-19.86c.42.4.87.78,1.29,1.18-.29-.17-.6-.31-.9-.47C585.35,792.39,585.23,792.15,585.09,791.91Zm15.64,21.52c2,1.83,3.85,3.78,5.66,5.75.28.51.57,1,.84,1.51.13.25.24.53.37.78l-.77-1c-2.28-2.8-4.68-5.51-7.23-8.09C600,812.76,600.36,813.09,600.73,813.43Zm-1.25,1.05a17.35,17.35,0,0,1,2.91,2.84l-1.07-1C600.8,815.83,600.17,815.17,599.48,814.48Zm-9.75,9.85s0-.05,0-.07c.49.43,1,.87,1.43,1.34-.76-.24-1.51-.49-2.29-.71C589.19,824.7,589.46,824.5,589.73,824.33Zm-17.05-3.43a.44.44,0,0,0,.2-.21c0,.14-.16,0,.17.16a9.1,9.1,0,0,1,.85.37,19.62,19.62,0,0,1,1.83,1.09l-1.16-.11A19.15,19.15,0,0,0,572.68,820.9Zm-3.49,1.86,1.68.24c-.15.11-.29.2-.41.3a18.37,18.37,0,0,0-4.3,1.83A19.31,19.31,0,0,1,569.19,822.76Zm-1,3.4a23.2,23.2,0,0,1,1.82-1.89l0,0c.92-.32,1.87-.61,2.84-.87l.51.11a15.08,15.08,0,0,0-2.42,1.13,19.52,19.52,0,0,0-3,1.76C568.1,826.3,568.17,826.23,568.22,826.16Zm5.9-.92c-.07.06-.12.13-.19.2a15.76,15.76,0,0,0-5.43,3.29,17.73,17.73,0,0,1,5.52-4.81,1.45,1.45,0,0,1,1,0c.06,0,.14,0,.2-.07l.3.06C575,824.4,574.46,824.93,574.12,825.24Zm3.1.75a16.11,16.11,0,0,1,1.38-1.09l.25-.17c.53.14,1,.27,1.58.43a6,6,0,0,0-.6.51,7.33,7.33,0,0,0-3.33,1.07C576.75,826.5,577,826.23,577.22,826Zm.91,2.52c.11-.16.24-.31.36-.47a16.55,16.55,0,0,1,1.74-1.82,1.89,1.89,0,0,1,.23,0c.12.06.37-.18.25-.28s-.09,0-.14-.09l.61-.54,1.69.53c-.35.3-.69.6-1,.92A17.79,17.79,0,0,0,578.13,828.51Zm5.36-2.42.62.21a9,9,0,0,0-1,.17C583.22,826.34,583.35,826.21,583.49,826.09Zm2.15.84c0-.06-.1-.12-.15-.18l.35.12-.22.2C585.65,827,585.67,827,585.64,826.93Zm.68.1c.75.27,1.49.57,2.23.86a33.84,33.84,0,0,0-5,2.25A32.93,32.93,0,0,1,586.32,827Zm-2.92,8.79c1.88-2.65,3.54-5.35,6-7.58h0l1.28.51a3.3,3.3,0,0,0,.3.22,18.68,18.68,0,0,0-2.38,2.71c-.34.22-.68.42-1,.62A19.47,19.47,0,0,0,583.4,835.82Zm6.33-4.82a12.45,12.45,0,0,1,1.63-1.76c.14.1.26.2.41.29s.29,0,.32-.18l.9.42A10.88,10.88,0,0,0,589.73,831Zm6.38.85c-.94.41-1.92.82-2.89,1.27a18.4,18.4,0,0,1,2.33-2.16l1.19.61Zm-1.35,4.41c1-1.53,2.33-3.1,4-3.47l.08-.06c.39.2.8.4,1.17.62A20.37,20.37,0,0,0,594.76,836.26Zm7.47-.57c-.85.44-1.68.91-2.51,1.38-.62.35-1.26.72-1.86,1.12a11.93,11.93,0,0,1,3.69-4c.5.3,1,.61,1.46.92l-.33.33Zm-.7,3.47-1.19.83a24.06,24.06,0,0,1,3.22-4.46c.62.42,1.23.85,1.84,1.3a5.23,5.23,0,0,0-.39.42A12.13,12.13,0,0,0,601.53,839.16Zm2.67,2.92a24.2,24.2,0,0,0-2.88,2.26c.46-.82.9-1.64,1.36-2.44a35.08,35.08,0,0,1,2.61-4.17,3.83,3.83,0,0,1,.87-.22l.09,0c.4.31.78.63,1.18.95a13,13,0,0,0-2.67,3.27C604.56,841.82,604.37,842,604.2,842.08Zm-.15,2.7c.28-.54.63-1.27,1.05-2a20.68,20.68,0,0,1,3.21-1.86c-.35.51-.68,1-1,1.53l-.06.1c-1.14.81-2.27,1.65-3.33,2.55C604,845,604,844.87,604.05,844.78Zm-2.47,4.83c.65-1.16,1.24-2.36,1.81-3.54,1-.75,2-1.48,3.06-2.2-.51.88-1,1.78-1.45,2.7C603.75,847.59,602.56,848.64,601.58,849.61Zm5.61-3.67c-.16.12-.32.27-.49.39,1.32-1.08,2.57-2.07,3.56-2.74l-.19.28A33.94,33.94,0,0,0,607.19,845.94Zm4.52.56a9.54,9.54,0,0,0-3.18,2.36l-.5.48a41,41,0,0,1,1.8-3.85,33.24,33.24,0,0,0,2.93-1.87l.58.64C612.82,844.92,612.26,845.68,611.71,846.5Zm.91,3.31a32.86,32.86,0,0,1,1.91-3.3c.09-.12.2-.23.29-.35,0,.06.11.12.16.19.34.47.65,1,1,1.44A7.67,7.67,0,0,0,612.62,849.81Zm4.44.9s0,0,0-.05v2.46l0,0A5.74,5.74,0,0,0,616,854C616.3,852.88,616.64,851.78,617.06,850.71Zm10.83-6.36a5.54,5.54,0,0,0-1.37-.26,2.25,2.25,0,0,1,.12-.21A6.77,6.77,0,0,1,627.89,844.35Zm3.2-2.37a6.59,6.59,0,0,0-3.4.18c.21-.33.41-.67.64-1C629.27,841.42,630.19,841.69,631.09,842Zm10.51-2.79a25.89,25.89,0,0,0-8.48-3.63c.43-.42.85-.86,1.31-1.27a27.74,27.74,0,0,1,7.41,5ZM634.72,834c.12-.12.24-.22.38-.34,1.1.61,2.2,1.22,3.28,1.85A17.34,17.34,0,0,0,634.72,834Zm9.47,3.78a53.56,53.56,0,0,0-8.77-4.38l1-.89A26.68,26.68,0,0,1,644.19,837.8Zm8.08-7.24a30.06,30.06,0,0,0-5.33-5.18l1.16-.65A46.25,46.25,0,0,1,652.27,830.56Zm7.43-8.66c-.4-.68-.84-1.32-1.29-1.94l.27-.11A8.36,8.36,0,0,1,659.7,821.9Zm5.74-.92a22.38,22.38,0,0,0-2.05-2.94l.76-.27C664.6,818.85,665,819.91,665.44,821Zm7.12-1.26a14.66,14.66,0,0,0-2-4h0l.3-.1s0,.07,0,.09A12.78,12.78,0,0,1,672.56,819.72Z" transform="translate(0 -703)"/><path class="cls-2" d="M680.37,813.17c-.08-.06-.24.07-.2.15,2.77,4.47.73,10.22,2.17,15,0,.16.34-.07.32-.18-.22-2.76-.13-5.54-.29-8.3C682.26,817.81,682.26,814.56,680.37,813.17Z" transform="translate(0 -703)"/><path class="cls-2" d="M707.13,810.26c-.16-.16-.45.18-.42.34a7.07,7.07,0,0,1-.21,2.37,20.45,20.45,0,0,0-.24,2.47c0,.22.32,0,.35-.13a15.68,15.68,0,0,0,.82-3C707.51,811.63,707.69,810.81,707.13,810.26Z" transform="translate(0 -703)"/><path class="cls-2" d="M654.46,819.84c-.05.16.17.09.23,0,.42-.34.89-1.2,1.4-1.38.09,0,.19-.24,0-.22A2.41,2.41,0,0,0,654.46,819.84Z" transform="translate(0 -703)"/><path class="cls-2" d="M615,762.93c.63-1.83,1.13-3.68,2.64-5.06.11-.09,0-.2-.1-.13-1.91,1.08-2.46,3.3-2.8,5.25C614.71,763.18,615,763,615,762.93Z" transform="translate(0 -703)"/><path class="cls-2" d="M627.86,783.46a32.73,32.73,0,0,0-6.24,9.84,48.21,48.21,0,0,0-3.91,12.27c0,.18.22,0,.26-.06,1.42-3.83,2.51-7.72,4.11-11.49a59.89,59.89,0,0,1,6-10.43C628.23,783.39,628,783.3,627.86,783.46Z" transform="translate(0 -703)"/><path class="cls-2" d="M596.71,795.66c0,.77.85,2.05,1.15,2.75.6,1.34,1.23,2.67,1.84,4,1.12,2.41,2.2,4.83,3.45,7.18.06.12.3-.06.25-.18a128,128,0,0,0-6.64-14.5c-.08-.14-.3.06-.3.16s0,.44,0,.67S596.71,795.75,596.71,795.66Z" transform="translate(0 -703)"/><path class="cls-2" d="M581.5,789.71c.06,0,.2-.12.13-.15a18.79,18.79,0,0,0-4.46-2.11c-.07,0-.2.11-.11.15C578.59,788.2,580,789.12,581.5,789.71Z" transform="translate(0 -703)"/><g class="cls-4"><path class="cls-5" d="M704.43,810.34c0-.09,0-.16,0-.23,0-.27-.4,0-.44.16a.06.06,0,0,0,0,0c-1.11,0-2.22,0-3.32,0a.19.19,0,0,0-.15,0c-1.07,0-2.15,0-3.23.08a.94.94,0,0,0-.1-.23c-.07-.12-.28,0-.27.15v.08l-2.66.15c0-.1,0-.23,0-.34s-.23,0-.24.11a1.1,1.1,0,0,0,0,.26c-3.56.24-7.12.65-10.66,1.24a4.89,4.89,0,0,0-.19-.46c-.06-.13-.26.06-.24.14s0,.25.08.38a128.62,128.62,0,0,0-27.44,7.83c-2.12.87-4.26,1.84-6.39,2.88.27-.32.52-.66.8-1l.15-.24c.66-.22,1.29-.49,1.93-.75a1.26,1.26,0,0,0,0,.27c0,.16.21.08.28,0s.35-.4.52-.61l.12-.05c.07,0,.19-.18.14-.24a4.67,4.67,0,0,1,1.6-1.32c.11-.05.41-.47.11-.44a3.31,3.31,0,0,0-2.59,1.87l-1.38.27c.26-.34.49-.62.58-.61s.29-.2.15-.26c-.7-.25-1.48.71-1.85,1.13l-.78.19,1.07-.53c.19-.11.32-.54,0-.38l-3,1.39s0,0,0,0,.05-.21,0-.23a6.79,6.79,0,0,0-2.42,0c2.41-1.42,4.88-2.79,7.23-4.28a6.65,6.65,0,0,1,3.52.22c.14.05.43-.22.29-.32a4.56,4.56,0,0,0-2.57-.71l.71-.47c.07,0,.1-.22,0-.16l-1.28.66a18.92,18.92,0,0,0-4,.86l-.67.2c3.08-1.73,6.16-3.48,9.18-5.31h0a2.76,2.76,0,0,1,2.51,1c.09.17.38-.09.34-.23-.62-1.68-2.94-1.83-5.44-1.39,1.37-.74,2.75-1.47,4.17-2.14.07.07.19,0,.23-.1.51-.23,1-.47,1.54-.69,1.06-.12,1.82,0,1.89.53,0,.2.3,0,.31-.15a.86.86,0,0,0-.72-1c.44-.18.86-.35,1.3-.51.07,0,.14-.19,0-.15-.59.18-1.19.36-1.78.56a10.89,10.89,0,0,0-3.23.39c2.38-1.18,4.8-2.27,7.21-3.37.06,0,.13-.19,0-.16l-1.71.61a3.09,3.09,0,0,0-1.82-.22l1.64-.78.14,0a35.83,35.83,0,0,1,7.35-1.69c.1,0,.31-.28.12-.27a30.28,30.28,0,0,0-4.13.52.69.69,0,0,0,.21-.33c.65-.37,1.29-.74,1.91-1.16.08,0,.11-.21,0-.14-.95.37-1.87.79-2.8,1.2a17.26,17.26,0,0,0-3.79.7c.66-.45,1.3-.92,2-1.36l1.11-.5c2.81-.17,5.58-.73,8.38-1,0,.15,0,.27.22.19a2.41,2.41,0,0,0,1-.42c.13-.11.69-.75.22-.84a10.2,10.2,0,0,0-2.14-.18l0,0a9.36,9.36,0,0,0-2.27-.08c1.18-.49,2.33-1,3.51-1.42a13.64,13.64,0,0,1,3.23-.73c.07,0,.29-.23.14-.26a3.86,3.86,0,0,0-.6,0l1.4-.52a1.28,1.28,0,0,0,.22.09l-.08.13c-.17.3.25.21.37.06-.07.09.5-.25.62-.43s.16-.25.1-.36c-.5-.83-1.88-.56-2.74-.49a13.39,13.39,0,0,0-2.38.35l.3-.18a44.79,44.79,0,0,1,7.42-2.06c.33,0,.54,0,.51.12-.06.27.31.07.38-.06a.73.73,0,0,0,.09-.23l1-.16s.15-.14,0-.14-.51,0-.78,0c.21-.11.43-.2.63-.33a.69.69,0,0,0,.32-.59,2.2,2.2,0,0,0,.39-.17c.18-.11.48-.6.08-.62a11.88,11.88,0,0,0-3.66.44l3.06-1.78c.2-.11.25-.54-.08-.39-2.72,1.3-5.46,2.68-8.18,4.15a14.89,14.89,0,0,0-4.71,2c-.06.06-.21.29-.08.33a20.63,20.63,0,0,0-4.38,2.78.14.14,0,0,0,0,.18c-2.25,1.38-4.48,2.82-6.67,4.31l-.6.32a.6.6,0,0,0-.17.21c-3.81,2.64-7.5,5.46-11,8.45a2.38,2.38,0,0,0-2.14-.42l2.49-2.35a8.94,8.94,0,0,1,2.16-.27s.14-.09.08-.12a3.79,3.79,0,0,0-1.54-.26l2.23-2h0a.45.45,0,0,1,.32.12c.1.12.34-.12.29-.22s0-.08-.06-.13c.32-.08.57-.06.55.27,0,.12.19,0,.21-.07.12-.56.23-.4.1-.83,0-.06-.1-.07-.15-.06l-.4.15c.69-.62,1.4-1.22,2.1-1.82.38,0,.65.12.58.52,0,.19.23,0,.26-.08a5.11,5.11,0,0,0,.31-.67c0-.08,0-.19-.09-.2a9.29,9.29,0,0,0-5.16,1.3,20.86,20.86,0,0,1,2.14-1.92c.17-.11.14-.38-.09-.23a8.12,8.12,0,0,0-3,2.92c-.05.12.09.13.15.06s.26-.27.39-.41h0a16.23,16.23,0,0,1,2.9-1,8.33,8.33,0,0,1,1.42-.31c-.9.64-1.8,1.3-2.68,2-1.27-.5-4.21,1.61-5.21,2.59a17.14,17.14,0,0,0-2,1.42c-.11.09-.11.23,0,.25a20.88,20.88,0,0,0-1.8,1.21c4-4.74,8.57-8.83,14.73-11.35.06,0,.15-.19,0-.17a17.81,17.81,0,0,0-6.2,2.69,6.6,6.6,0,0,1,2.48-2s.17-.2,0-.19c-1.46.14-2.72,1.62-3.56,2.92-.68.48-1.32,1-2,1.53a16.18,16.18,0,0,0,1.39-2.71c.07-.18-.15-.15-.21,0-.89,1.29-1.76,2.62-2.58,4-.63.57-1.24,1.14-1.81,1.71-.4.4-.77.83-1.15,1.23.47-1,.92-1.91,1.46-2.84l1.22-.6c.07,0,.3-.27.12-.31a3.45,3.45,0,0,0-.72-.08c.14-.22.26-.45.43-.67s0-.17-.14-.08-.4.48-.61.71c-2.39,0-5.19,1.93-7,3.17a53.08,53.08,0,0,1,8.45-5.63,12.06,12.06,0,0,1,1.92-.36c.09,0,.32-.23.19-.32a1.8,1.8,0,0,0-.46-.23l.31-.17c.11-.06.31-.36,0-.32s-.75.18-1.12.28a4.81,4.81,0,0,0-1.74.17c1.72-.87,3.45-1.73,5.08-2.75.09-.06.2-.29,0-.25-3.85.76-7.52,3-10.72,5a32.15,32.15,0,0,0-3,2.17c.13-.24.23-.48.35-.71a.22.22,0,0,0,.22,0c2.22-1.17,4.14-2.75,6.3-4a28.32,28.32,0,0,1,9-3.32c.1,0,.33-.22.21-.33-2.14-1.81-6.27.43-8.29,1.44a20.27,20.27,0,0,0-6.44,4.49c.5-.91,1-1.81,1.55-2.71,1.71-.9,3.37-2,5-2.77.89-.43,7.62-4,8.39-3,.09.12.31-.12.28-.23-.42-1.25-2.78-.89-5.61.16,2.91-1.89,5.91-3.68,9-5.4a1.56,1.56,0,0,1,1,.36c.16.14.46-.17.35-.32a2.3,2.3,0,0,0-.58-.5c.08-.11.09-.27-.09-.18l-.12.06c-2.26-1.09-6.31,1.52-8.05,2.5a56.92,56.92,0,0,0-6,3.61c.25-.38.5-.76.77-1.14.48-.49,1-1,1.49-1.46a32.25,32.25,0,0,1,2.93-1.74c2.92-1.48,6.93-3.48,10.34-2.49.11,0,.31-.13.25-.24-1.34-2.84-6.79-.43-9.14.63,3.58-2.8,7.57-4.95,12.38-5.3.1,0,.31-.19.17-.27a5.6,5.6,0,0,0-3-.45,8.23,8.23,0,0,0-3.49.73,37.44,37.44,0,0,1,8.57-4.6,2.16,2.16,0,0,1,1.66.32c.07.07.24-.09.18-.16a2.84,2.84,0,0,0-.71-.6l.37-.15c.07,0,.23-.23.06-.23a10.52,10.52,0,0,0-1.12.07c-2.37-.68-6,1.18-7.89,2-.83.35-1.62.74-2.42,1.13.62-.62,1.27-1.23,1.92-1.84,1.22-.38,2.43-.79,3.66-1.18.5-.15,7.35-2,7.36-1.6,0,.19.29,0,.32-.11.4-2-4.69-.42-5.37-.24-1.15.31-2.4.62-3.63,1,.38-.34.76-.69,1.15-1a21.46,21.46,0,0,0,3.13-1c.87-.34,1.72-.69,2.61-.94.59-.18,1.9-.05,2.31-.47-.15.15-.17.46.14.33a1.79,1.79,0,0,0,.73-.45c.13-.12.39-.54.07-.65-2.43-.78-5.15.63-7.45,1.87q2.18-1.85,4.48-3.64c.14-.11.21-.46-.06-.32a44.53,44.53,0,0,0-4,2.46c.26-.34.54-.67.79-1a7.39,7.39,0,0,0,1.64-3.3c0-.34-.47-.14-.58,0a8.82,8.82,0,0,0-.65.86.06.06,0,0,0,0,0c-.48.68-.92,1.39-1.39,2.06a21.44,21.44,0,0,0-1.56,2.59c-1,.78-2.06,1.59-3,2.43a19.32,19.32,0,0,1,2.19-3.72c.48-.58,1.82-2.1,1.41-2.91,0-.06-.09-.07-.16-.06a.75.75,0,0,0-.33.17c-.14.09-.2.41,0,.28a9.94,9.94,0,0,0-2.23,2.48,29.67,29.67,0,0,0-1.86,3.35c-.41.74-.81,1.45-1.18,2.19a9.65,9.65,0,0,0-1.52,1.07c.64-1.33,1.27-2.65,2-3.91.67-1.1,2.23-2.72,2.05-4.06,0-.16-.23-.09-.31,0l0,0c-.07.08-.16.34,0,.27-1.14.4-2.4,2.55-3.24,3.85s-1.62,2.49-2.37,3.87a20.5,20.5,0,0,0,2.3-6.41c0-.36-.47-.05-.62.17,0,0,0,0,0,0-1.75,2.93-3,6.25-4.43,9.32-.28.59-.56,1.17-.86,1.77a4.74,4.74,0,0,0-1.32,1.32c-.06.09,0,.27.11.27a4.52,4.52,0,0,0,.53-.11c-.25.54-.45,1.08-.66,1.64l-1.26,1.54c-.27.34-.52.7-.79,1a35.12,35.12,0,0,0,2-5.48c.17-.75,1.34-5,1.44-5s.42-.36.16-.38c-1.3-.08-2.3,3.58-2.59,4.36a89.73,89.73,0,0,0-3.23,8.86c-.36.23-.71.49-1.06.75.52-3.24,1-6.49,2.74-9.34,0,0,0-.16-.08-.16-1.89,0-2.76,4.47-3.07,5.62a57.75,57.75,0,0,0-1.24,5.66c-.06.12-.14.22-.2.35s0,.22.14.22c-.08.61-.14,1.22-.17,1.82-.45.7-.9,1.41-1.34,2.14l-.5.34c.13-.77.24-1.56.37-2.34.37-2.6,1-5.27,1.19-7.88,0-.23-.32,0-.36.08-1.42,2.43-1.78,5.42-2.22,8.12-.17,1.09-.34,2.16-.5,3.24l-.09.09c-.15.2-.19.52,0,.64,0,.2,0,.4-.06.6-.46.47-.86,1-1.27,1.47.1-1,.22-2,.36-3,.23-1.44.48-2.87.73-4.31a13.37,13.37,0,0,0,0-2.1.26.26,0,0,0,.1-.07l.18-.21c.13-.08.27-.42,0-.37l-.21,0a.52.52,0,0,0-.37.35,36.63,36.63,0,0,0-2.42,14.4c-.48,1-.94,1.91-1.41,2.87.13-1.46.22-2.93.3-4.41.18-3.16.79-6.35.81-9.51,0-.25-.35,0-.38.13a34.86,34.86,0,0,0-1.48,9c-.19,2.34-.33,4.68-.33,7-.63.74-1.24,1.48-1.81,2.25,0-1.23,0-2.45,0-3.68a99.83,99.83,0,0,1,1.24-10.48c0-.2-.24-.08-.29,0-1.42,3.18-1.74,6.78-2,10.2a41.45,41.45,0,0,0-.08,5.58c-.23.36-.49.7-.72,1.06s.18.26.32.11.31-.32.46-.48c.05.59.12,1.17.22,1.75-.48,1.22-1,2.44-1.42,3.66-.1-2.53-.34-5.05-.42-7.59-.1-3.13-.78-6.86.19-9.88.07-.19-.21-.05-.26,0a8.54,8.54,0,0,0-.88,3.93l-.06,0c-.17.34-.33.66-.48,1a.4.4,0,0,0-.35.13,41.29,41.29,0,0,0-4.63,9c-.32.83-.64,1.69-.93,2.57-.07-.46-.13-.91-.2-1.37a43.15,43.15,0,0,1,3.24-10.26,131.67,131.67,0,0,1,7.24-13c.1-.15-.07-.23-.19-.1a35.82,35.82,0,0,0-5.83,8.95,36.83,36.83,0,0,0-4.22,8.47,37.81,37.81,0,0,1,1.76-6A80.29,80.29,0,0,1,627.12,799c.13-.23-.18-.16-.28-.06a38.3,38.3,0,0,0-6.48,11.19,35,35,0,0,0-1.65,5.07c-.13-1-.27-2-.41-3,.09-.41.14-.84.23-1.24a.18.18,0,0,0,.15-.11c2.36-7.72,6.61-14.08,10.66-21,.12-.21-.19-.15-.28,0a55.61,55.61,0,0,0-7.71,12.53,17,17,0,0,0-3.45,6.84c0-.17,0-.34-.07-.49,1.62-4.61,3.82-8.91,5.59-13.45.09-.25-.22-.14-.3,0a47.59,47.59,0,0,0-5.46,12.22c-.12-1-.25-1.89-.36-2.84,1.17-3.57,2.38-7.07,3.91-10.55.11-.24-.21-.19-.31-.05a25.73,25.73,0,0,0-3.65,8.22,22.62,22.62,0,0,0-.39-3,26.58,26.58,0,0,1,2.59-7.16c1.34-2.57,3.1-5,4.23-7.63.12-.26-.2-.2-.31-.06a49.63,49.63,0,0,0-3.92,6.22c.63-1.56,1.3-3.09,2.07-4.59a56.69,56.69,0,0,1,7.54-10.66c.12-.14,0-.27-.16-.15-6.11,4.84-9.66,12.45-11.63,19.82-.14.34-.28.68-.41,1a26.22,26.22,0,0,1,1.91-6.38c1.08-2.39,2.4-4.67,3.4-7.1.12-.24-.2-.13-.28,0-1,1.6-2.12,3.36-3.14,5.22,2-5.53,4.36-10.86,8.08-15.69.12-.17-.07-.24-.19-.12-5,4.85-7.18,11.56-9,18-.33.73-.62,1.46-.87,2.2,0-.53-.1-1-.17-1.54.63-2,1.34-4,2.15-6,.11-.25-.19-.18-.29-.05a15.23,15.23,0,0,0-2.19,4l-.09-.4c.19-1.09.42-2.17.72-3.25a36.43,36.43,0,0,1,3.58-7.74c.09-.18-.14-.17-.24-.07a13.82,13.82,0,0,0-1.87,2.33,34.75,34.75,0,0,1,5.55-9.7c.16-.2-.08-.26-.24-.13a15.38,15.38,0,0,0-2.24,2.32c.09-.2.19-.39.28-.6s-.19-.17-.28,0a31.23,31.23,0,0,0-5.3,9.8,12.28,12.28,0,0,0-.14-1.36c1.64-4.85,4.4-8.94,6.68-13.54.1-.2-.17-.15-.25,0a37.23,37.23,0,0,0-6.54,12.73c0-.23-.1-.47-.15-.7.82-3.36,2.82-6.56,4.7-9.38.13-.18-.06-.25-.2-.12a19.92,19.92,0,0,0-4.57,6.95,28.76,28.76,0,0,1,3.83-10.84c.14-.25-.2-.18-.3-.06a22.6,22.6,0,0,0-1.73,2.46c.38-1,.78-2.08,1.23-3.11.08-.16-.14-.13-.19,0a24.24,24.24,0,0,0-2.94,7.09c0-.81-.1-1.63-.18-2.43a22.55,22.55,0,0,1,3.12-7.9c.12-.2-.14-.2-.26-.09a12.13,12.13,0,0,0-3.22,5.31l0-.28s0,0,0-.07a63.38,63.38,0,0,1,3.2-7.44c.1-.21-.18-.17-.28,0a15.13,15.13,0,0,0-3.14,6.54l-.24-1.56c0-1.57,0-3.15.11-4.72,0-.08-.11,0-.11,0-.07,1.23-.12,2.44-.17,3.66-.1-.63-.21-1.27-.3-1.91-.05-.27-.41,0-.42.19a28.19,28.19,0,0,0,.51,9.37c0,.93,0,1.85,0,2.78a16.14,16.14,0,0,0-2-4.25c-.12-.17-.45.16-.44.3a29.53,29.53,0,0,0,2,6.84c.2.62.37,1.24.56,1.85,0,1.22,0,2.42.07,3.63a31.39,31.39,0,0,0-2.12-5.8c-.13-.24-.5.1-.49.27.13,3.1,1.22,6,2.14,9,.24.78.45,1.56.68,2.34.07,1.74.15,3.47.25,5.21a95.44,95.44,0,0,0-3.62-9.29c-.09-.19-.42.08-.39.22a56.91,56.91,0,0,0,2.85,9.69c.52,1.46,1,2.93,1.46,4.41.09,1.51.2,3,.31,4.52a2.3,2.3,0,0,1-.12-.34c-1.3-3.36-2.61-7.15-5.1-9.89-.15-.16-.43.18-.4.32.75,3.38,2.53,6.5,3.87,9.69.81,1.94,1.49,3.91,2.17,5.89l.27,3.61c-.13-.33-.25-.66-.39-1-1.28-3.25-2.55-6.85-4.76-9.65-.13-.18-.48.16-.46.31.09.51.26,1,.4,1.51a7.9,7.9,0,0,0-2.06-2.63c-.24-.2-.73.22-.69.48s.09.58.13.88.23.11.37,0a15.49,15.49,0,0,1,2.06,5.26l-.53-.6c-.14-.13-.4.16-.36.3a30.4,30.4,0,0,0,1.46,4v0a10,10,0,0,0-1.11-1.52c-.11-.12-.36.13-.35.25a28.57,28.57,0,0,0,2.28,8c.21,1.26.45,2.5.68,3.76a20.8,20.8,0,0,0-1.13-2.38c-.65-1.83-1.32-3.65-2-5.47-1.53-4.31-2.64-9-5-13-.07-.14-.34.07-.28.19.31.65.57,1.33.84,2,0,0,0,0,0,.07,2.29,6.38,3.37,13,5.38,19.46-.36-.64-.68-1.29-1-1.93s-1-1.54-1.48-2.33a.15.15,0,0,0,.05-.13c-2.18-6.34-4.05-12.73-7-18.81-.09-.19-.35.07-.38.18a1.43,1.43,0,0,0-.09.27c-.09.23.26.09.32,0-.37.82.69,2.3,1,3.12.64,1.59,1.26,3.12,1.78,4.75a70.81,70.81,0,0,0,3.51,9.5,97.34,97.34,0,0,0-7.58-10.06.24.24,0,0,0,.08-.19,40.34,40.34,0,0,0-7-14.43c-.23-.27-.73.28-.66.52a3.52,3.52,0,0,0,1,1.75h0c1,1.74,2,3.48,2.85,5.28,1,2,1.78,4.07,2.84,6-1.09-1.23-2.19-2.45-3.34-3.63.07,0,.11-.13.07-.17-.58-.54-1.22-1.1-1.89-1.64-.44-.45-.87-.89-1.32-1.33,0,0,0,0,0,0a35.05,35.05,0,0,0-2-5.94l0,.06c.06.13.21,0,.3-.08h0c.37.51.71,1,1,1.57.58.94,1.07,1.92,1.57,2.9a28.65,28.65,0,0,0,2.61,4.47c.06.09.26-.11.23-.19a33.74,33.74,0,0,0-5.32-9.74c-.09-.11-.31,0-.39.09s-.13.13-.2.2a.37.37,0,0,0-.1.23,12.76,12.76,0,0,0-3.82-4.89c-.14-.09-.38.11-.36.24s0,.45.05.68.28,0,.28-.13,1.65,2.07,1.76,2.24a24.65,24.65,0,0,1,1.58,2.9c.8,1.62,1.49,3.29,2.28,4.91-1.09-1-2.21-2-3.34-3-.85-3.05-2.08-6.73-4.88-8.58-.22-.15-.67.21-.55.44a4.92,4.92,0,0,1,.38.85c0,.12.19,0,.28-.08a31.64,31.64,0,0,1,3.6,6.33c-.91-.81-1.86-1.57-2.8-2.35a37.56,37.56,0,0,0-3.56-4.78c0-.07-.2.07-.17.14.67,1.08,1.37,2.19,2.1,3.29q-2.19-1.74-4.44-3.39s-.09,0-.06.06c1.75,1.37,3.45,2.79,5.1,4.24.44.64.88,1.26,1.34,1.86a30.07,30.07,0,0,0-5.59-2c-.1,0-.3.15-.17.22,2.91,1.5,6,3,9,4.22l.15.16c.06.1.11.2.17.29a.11.11,0,0,0,.14,0l1,1a21.62,21.62,0,0,0-5.85-2.59c-.08,0-.19.12-.1.15,3.22,1.34,5.84,3.37,8.6,5.26.77.87,1.55,1.72,2.3,2.61a44.47,44.47,0,0,0-7.83-4.53c-.08,0-.24.13-.14.19a61.08,61.08,0,0,1,10.36,7.3c.27.35.55.68.83,1-1.63-1.54-3.63-3-5.64-2.92-.06,0-.23.17-.12.19a5.25,5.25,0,0,1,1,.33.6.6,0,0,0-.32.44,2.18,2.18,0,0,0,.14,1.15c.06.2.42-.1.41-.23s0-.34,0-.5a21,21,0,0,1,4.74,3.16l.89.94c1.18,1.25,2.26,2.59,3.36,3.91.71,1.11,1.42,2.22,2.1,3.35A102.16,102.16,0,0,0,593.7,806s-.14.06-.11.1l1.64,1.57c-.89-.67-1.8-1.32-2.73-1.93-.08-.06-.24.09-.17.16.94,1,1.95,1.9,2.95,2.8h0c2.1,2.18,4.1,4.42,6,6.71a11.24,11.24,0,0,0-2.81-1.83c-1.7-1.56-3.69-3-5.58-2.69,0,0-.12.11-.07.12,3.25.61,6.14,4.53,8.36,6.66,2.71,2.63,5.34,5.33,7.94,8.06.3.34.58.7.87,1,.67,1.58,1.3,3.16,1.88,4.78-1.06-1.41-2.14-2.78-3.24-4.15a47.76,47.76,0,0,0-2.95-4,11.65,11.65,0,0,0-2-2.09l-.89-1.1c-1-1.29-2.23-3.11-3.92-3.7-.08,0-.22.11-.12.16,1.42.79,2.51,2.88,3.41,4.15l0,0h-.13c-.12,0-.37.33-.14.33a1.56,1.56,0,0,1,.68.22c1.14,1.57,2.31,3.11,3.47,4.65l.55.76c1.47,2.36,2.84,4.76,4.18,7.19.15.27.29.54.43.82-1.72-2.46-3.49-4.88-5.38-7.22-2.83-3.5-6.07-7.3-10.2-9.46-.06,0-.18.08-.13.13a111.94,111.94,0,0,1,9.57,10c1.36,1.72,2.66,3.46,4,5.21a38.6,38.6,0,0,0-8.72-7.22c-.07,0-.24.13-.16.18a50.74,50.74,0,0,1,5.35,4.66.59.59,0,0,0-.21.29c0,.16,0,.23.11.37s0,0,.08,0a18,18,0,0,1,1.15,1.41c-.89-.61-1.8-1.21-2.73-1.78a31.94,31.94,0,0,0-5.05-5.38c-.28-.23-.81.28-.7.57a3.35,3.35,0,0,0,.65,1.29c.08.14.28,0,.38-.11.49.57,1,1.17,1.43,1.79-.59-.31-1.16-.61-1.75-.89a20.52,20.52,0,0,0-5.3-4.75c-.23-.13-.64.32-.55.53a5.33,5.33,0,0,1,.37.85c.07.16.3,0,.37-.17.85.74,1.65,1.52,2.43,2.33-.94-.39-1.89-.77-2.84-1.11a28.18,28.18,0,0,0-5.45-4.46c-.15-.1-.34,0-.45.16l-.16.2c-.05.06-.1.17,0,.23l.28.43c.07.13.26-.07.25-.17-.13-.48-.1-.49.1,0,.47.37.95.75,1.41,1.14l.31.28a11.63,11.63,0,0,0-1.07.64l-1.16-.31a11.94,11.94,0,0,0-5.21-3c-.19,0-.54.2-.43.41a1.34,1.34,0,0,0,.62.65c.09.06.25-.06.27-.16a16.21,16.21,0,0,1,2.42,1.57c-.91-.21-1.83-.41-2.75-.59-.15-.13-.28-.28-.44-.41-1.07-.91-2.7-2.2-4.25-1.94-.15,0-.37.24-.31.41a1.79,1.79,0,0,0,.62.88c.11.09.32-.12.24-.23s-.1-.29-.16-.44a7.5,7.5,0,0,1,2.91,1.47c-1-.18-2-.33-3-.48a29.42,29.42,0,0,0-2.63-1.6c-.43-.24-2.82-1.53-2.85-.2-.42-.24-.84-.47-1.27-.69-.93-.48-2.72-1.4-3.56-.32-.13.16.05.22.17.1.83-.81,3.74,1.18,4.4,1.58l1.07.63-1.06-.08c-2.08-1.16-5-1.91-7.21-.6-.06,0-.07.13,0,.1,1.79-.77,3.77-.12,5.62.4-3-.15-6-.17-9,0,0,0-.12.11,0,.12,1.3.06,2.59.19,3.88.31-.43.28-.82.6-1.12.84a10.75,10.75,0,0,0-5.23,2c-.07,0,0,.11,0,.07a13.93,13.93,0,0,1,4.74-1.72,11.68,11.68,0,0,0-3.44,4c-.1.21.14.19.26.09,1.49-1.25,2.73-3.17,4.39-4.36l.44-.1c.06,0,.18-.18.06-.17h-.11a5,5,0,0,1,1.33-.59c.62.07,1.25.18,1.87.27a13.55,13.55,0,0,0-2.19,1.71c-.54.49-1.06,1-1.58,1.55a19.76,19.76,0,0,0-1.93,1.5c-.14.13-.06.33.14.2s.37-.2.56-.32c-.31.37-.64.74-.93,1.11-.09.12,0,.17.14.09.61-.55,1.18-1.13,1.73-1.73a34.39,34.39,0,0,1,4.31-2.12,24.33,24.33,0,0,0-3.78,4.72c-.09.17.14.18.22.08.37-.36.7-.74,1-1.12a.16.16,0,0,0,.19,0c1.3-.82,2.57-1.72,3.89-2.53a16.82,16.82,0,0,0-3.81,5c-.07.16.14.12.21,0,.49-.63,1-1.26,1.48-1.87,0,.11,0,.21.16.12,1.36-.76,2.68-1.57,4.06-2.29a13.79,13.79,0,0,0-3,4c-.07.17.13.18.22.07,1.29-1.34,2.46-2.78,3.72-4.14.25-.27.54-.51.8-.77A9.33,9.33,0,0,1,577,825c0,.19.3,0,.32-.11.16-.95-1.11-.42-1.74-.15l.3-.29c.12-.09.28-.25.47-.41l1.88.47a17.36,17.36,0,0,0-2.75,2.47c-.18.18-.35.38-.54.56a14.82,14.82,0,0,0-4.81,3.42c-.11.14,0,.25.18.15,1.09-.71,2.21-1.39,3.33-2.07a15.24,15.24,0,0,0-2.06,3.13c-.09.19.13.2.24.09,1.12-1.24,2.05-2.6,3.12-3.87.1-.13.24-.23.35-.36a13.07,13.07,0,0,1,4-1.87c-.28.28-.56.58-.81.88a30.14,30.14,0,0,0-2,2.54,26.75,26.75,0,0,0-3.65,3.21c-.13.14-.06.35.15.21.84-.57,1.67-1.16,2.5-1.74-.08.14-.17.29-.24.44s.19.16.29.06c.35-.4.66-.81,1-1.22a29.94,29.94,0,0,1,4-2.34A29.24,29.24,0,0,0,577,832.9c-.1.16.11.17.21.08,1.45-1.56,2.73-3.25,4.16-4.82.18-.19.39-.36.58-.55s.44-.18.68-.26c0,.11,0,.19.17.12.46-.18.93-.37,1.4-.54a1,1,0,0,0,.4-.46c.26.24.52.49.78.7a.08.08,0,0,0,.11,0,32.79,32.79,0,0,0-3.4,3.77,26.45,26.45,0,0,0-8,6.59c-.12.15.05.22.17.1a57,57,0,0,1,6.72-5.2c-.78,1.08-1.51,2.17-2.2,3.22-.1.16.06.23.17.12,1.25-1.37,2.37-2.81,3.49-4.25a41.24,41.24,0,0,1,5.31-2.68,31.37,31.37,0,0,0-6.32,9.19c-.11.24.2.17.3.05.34-.42.67-.85,1-1.29-.12.19-.28.35-.39.53s.15.32.32.19c1.43-1.07,2.75-2.27,4.16-3.37a17.38,17.38,0,0,0-2.68,5.56c0,.24.27.07.32,0a66.89,66.89,0,0,1,3.46-6l.46-.7a21,21,0,0,1,2.48-1.43c.73-.36,2.4-.64,2.77-.94-.18.15-.16.45.11.27a5.79,5.79,0,0,0,.72-.5l.44.21A16.53,16.53,0,0,0,591.5,834a13.13,13.13,0,0,0-5.43,4.56c-.14.22.16.2.28.09a34.22,34.22,0,0,1,3.79-2.86,27.13,27.13,0,0,0-3.8,7c-.07.2.21.1.28,0,1.74-2.68,3.28-5.55,5.24-8.07.79-.45,1.61-.88,2.45-1.28s1.44-.64,2.15-1c.07,0,.58-.24,1.13-.44l.46.24c-1.29.31-3.26,2.82-4.95,5.39a17.29,17.29,0,0,0-1.81,2c-.14.18,0,.32.19.2s.35-.25.52-.38a18.85,18.85,0,0,0-2,4c0,.24.26.06.31,0,1-1.67,2-3.33,3-4.95,1-.78,2.07-1.56,3.16-2.28a25,25,0,0,1,3.06-1.75,16,16,0,0,0-2.07,2.46,23.07,23.07,0,0,0-3.31,6.8c-.07.26.28.11.37,0a42.56,42.56,0,0,0,2.65-4.41c1.09-.74,2.29-1.39,3.39-2,.26-.17.58-.32.91-.49a40.15,40.15,0,0,0-3.31,4.89,8.5,8.5,0,0,0-2,2.46c-.11.22.11.27.28.18s.31-.23.48-.34a18.42,18.42,0,0,0-1.77,4.24c0,.24.35,0,.4,0,1.25-1.85,2.26-3.82,3.36-5.73.73-.63,1.44-1.28,2.17-1.86a26.79,26.79,0,0,1,3.21-2.37c-.3.4-.54.77-.73,1a27.8,27.8,0,0,0-3.86,6.8,9.23,9.23,0,0,0-1.07,1.59c-.16.28.19.25.34.12,1.55-1.34,3-2.65,4.54-3.85-.49.92-.93,1.85-1.33,2.73l-.22.21c-.14.13-.08.24,0,.24a26.12,26.12,0,0,0-1.3,3.48,5.4,5.4,0,0,0-1.35,2c-.05.3.32.14.42,0,.39-.47,2.17-2.15,4.28-4a.36.36,0,0,1,0,.07,18.59,18.59,0,0,0-2.92,3.64c-.16.27.21.24.35.12.56-.49,1.11-1,1.65-1.49-.26.7-.51,1.4-.73,2.12-.07.22.26.1.33,0a33.85,33.85,0,0,0,1.8-3.39c1-.93,2-1.86,3.12-2.72a12.79,12.79,0,0,1,1.13-.8,47.46,47.46,0,0,0-2.46,5.13,8.26,8.26,0,0,0-1.69,3.18c-.07.23.24.1.31,0l.37-.45c-.25.77-.5,1.55-.7,2.32-.06.26.31.07.37,0a36.35,36.35,0,0,0,2.06-4.41l1.29-1.48a19.77,19.77,0,0,1,2.67-2.75c-2.51,3.92-5,8.66-4.92,9.9,0,.22.34,0,.39-.09.45-1,3.12-6.39,5.56-10.44a1.59,1.59,0,0,1,1-.16c.16,0,.44-.24.25-.32a1.74,1.74,0,0,0-.89-.16q.63-1,1.2-1.83c.27.32.52.67.78,1a22.19,22.19,0,0,0-3.77,6.45,12.6,12.6,0,0,0-1.82,2.88c-.1.22.16.22.28.11l.62-.61-.65,2c0,.21.24.1.31,0a26,26,0,0,0,1.93-3.65,19.17,19.17,0,0,1,4.37-3.93,2.42,2.42,0,0,1-.4.39c-.22.2-.07.51.21.3.47-.34.81-.56,1-1,.17.27.31.55.47.83,0,0,0,.06,0,.08-.19.28-.36.55-.53.85a8.68,8.68,0,0,0-3.92,4.68c-.09.21.23.14.31.06,1-.92,1.76-2,2.68-3h.07a16.43,16.43,0,0,0-1.06,3.86,14.51,14.51,0,0,0-1.29,2.78c-.1.28.32.13.41,0,.25-.34.53-.64.78-1,.15.12.57-.19.61-.36s.12-.41.18-.62c.66-.76,1.3-1.54,2-2.3V996.88H624V860.71a17,17,0,0,0,0-1.89v-8.54c0-.06,0-.13,0-.19a30,30,0,0,1,1.51-4.09,4.51,4.51,0,0,0,.22-.44c1.33,2.18,2.57,4.39,3.79,6.62.08.14.31-.07.28-.18a15.39,15.39,0,0,0-3.86-6.84l.21-.4c2.09.73,3.68,2.75,4.88,4.38,1.5,2,2.78,4.2,4.37,6.17.13.16.44-.17.4-.32-.89-2.82-3.22-7.81-6.51-9.93,2,.91,4,2,6,3q3.18,1.73,6.17,3.72a13.43,13.43,0,0,0,3.58,2,.44.44,0,0,0,.49-.39c-.1-1.5-2.14-2.75-3.27-3.49a77.92,77.92,0,0,0-7.15-4.12c-1.2-.62-5.71-3.14-8-2.61.12-.22.27-.42.4-.62,3.63-.4,7.34,1.6,10.38,3.23,3.23,1.73,6.15,4,9.47,5.59.16.07.46-.23.31-.35-.48-.44-1-.81-1.52-1.21a14.62,14.62,0,0,0,2.66.9c.18,0,.59-.27.38-.43-3-2.48-6.66-4.38-10-6.31-3.15-1.78-6.7-3.42-10.42-3.25.44-.61.91-1.21,1.39-1.81,7.71,1.34,13.05,7.37,19.48,11,0,0,.09,0,.14,0s.2.17.3.24.52-.19.37-.34a81,81,0,0,0-8.05-7.66c-2.54-2.06-5.85-4.43-9.33-4.48-.11,0-.34.23-.19.29a28,28,0,0,1,9.54,5.66c-.75-.47-1.5-.94-2.25-1.39-2.94-1.8-6.31-3.42-9.88-3.51.64-.77,1.29-1.51,2-2.23.17-.17.36-.34.53-.53a37.08,37.08,0,0,1,8.67,4.47c2.91,2,5.61,4.65,8.88,6,.2.08.49-.24.37-.4a13.65,13.65,0,0,0-1.93-2c-2.81-2.81-5.94-5.93-9.52-8,2,1.16,3.93,2.39,5.8,3.69,1.47,1,2.87,2.13,4.25,3.26l1,1.11c.07.06.17,0,.23-.07,1.55,1.3,3.1,2.59,4.7,3.82.14.1.39-.15.3-.27a41.71,41.71,0,0,0-7.66-7.25,42.48,42.48,0,0,0-3.84-3.87c-2-1.76-4.49-3.65-7.25-4.13.41-.34.84-.67,1.26-1a80.59,80.59,0,0,1,8.92,6.37c3.22,2.71,6,5.88,9.2,8.58.16.13.54-.2.44-.36-2.11-3.6-5.37-6.52-8.6-9.2a30.07,30.07,0,0,0-9.47-5.78c.85-.64,1.72-1.27,2.6-1.88,2.55,1.77,4.54,4.4,6.65,6.56,3,3,5.5,6.37,8.89,9,.18.14.51-.2.38-.37A79.84,79.84,0,0,0,648.07,834c-2-1.91-4-4.13-6.52-5.31.57-.39,1.16-.77,1.76-1.15a67.36,67.36,0,0,1,6.77,7c2.16,2.84,4,5.88,6.55,8.42.15.15.5-.17.42-.33a64.3,64.3,0,0,0-5.37-8.63c-1.95-2.59-4.57-5.81-8-6.66.95-.59,1.89-1.15,2.86-1.69a155.35,155.35,0,0,0,12.05,16.15c.13.16.49-.19.41-.35-1-2.07-2.21-4.2-3.51-6.25l3.28,4.5c.1.21.21.41.33.63s.1.06.15,0c.53.7,1,1.43,1.56,2.12.13.17.47-.18.41-.32a27.51,27.51,0,0,0-3.16-5.94,62,62,0,0,0-5.39-9.41c-.28-.41-2.14-3.49-2.82-2.54,0,.07,0,.1.09,0s3.82,5.83,3.93,6,.27.46.4.69c-1.58-2.14-3-5.23-5.48-6.64,1.24-.65,2.51-1.27,3.78-1.86a9.16,9.16,0,0,1,1.86,2.6c.49.83.93,1.69,1.36,2.56-1.17-1.6-2.33-3.21-3.33-4.87-.05-.09-.21,0-.19.12,1.12,3.39,3.36,6.28,5.49,9.21,1.07,2.66,2,5.36,3.33,7.91.08.16.34-.06.33-.18a22.76,22.76,0,0,0-.71-3.15c.13.25.29.49.41.73s.31-.06.27-.18a21.84,21.84,0,0,0-2-4.29c-.5-1.23-1-2.44-1.58-3.63-.86-1.88-2.33-6-4.75-7.06.48-.21,1-.43,1.43-.66l1.08-.46a65.37,65.37,0,0,1,3.77,8.12c-1.15-2.46-2.63-4.83-3.71-7.31-.11-.26-.58.11-.56.31.71,3.9,3.68,7.17,5.34,10.72.06.15.3-.06.27-.17s-.16-.5-.24-.75c.9,2.28,1.82,4.56,2.9,6.79.09.18.36-.09.33-.23-1.13-6-3.32-12.94-7.71-17.64.57-.24,1.11-.49,1.69-.72.75,1.86,1.71,3.65,2.52,5.49s1.54,3.63,2.37,5.43c.71,2.17,1.44,4.36,2.29,6.51.06.15.34-.07.32-.19a66.78,66.78,0,0,0-3.34-12.08c-.63-1.66-.94-4.55-2.5-5.83l.9-.35c-.07.06-.12.15-.09.2,2.57,5.09,4.12,10.48,5.7,15.9,0,.15.33-.06.32-.19-.19-1.56-.45-3.2-.78-4.83.66,2.47,1.31,5,2.16,7.37.07.21.37-.09.37-.2.29-3.57-1.13-7.49-2.19-10.85-.41-1.31-1.84-7.51-4.14-7.17-.06,0-.2.16-.1.18.78.21,1.27,2.33,1.49,3s.36,1,.53,1.52a18.36,18.36,0,0,0-3-4.94.11.11,0,0,0-.08,0c.84-.32,1.67-.64,2.51-.94,1.72,3.44,3.24,6.95,4.68,10.49a32.5,32.5,0,0,0,1.43,5c.07.17.39-.08.37-.21-.11-.65-.25-1.3-.36-1.95,0-.05.1-.13.08-.18-.21-1.17-.47-2.35-.8-3.52-.17-.83-.34-1.67-.54-2.5-.59-2.6-1.37-5.61-3.15-7.75,1-.37,2.09-.72,3.15-1.07,1.53,5.26,1.59,11,3.7,16,.09.19.42-.08.41-.22-.7-5.25-1.41-11-3.72-15.92l2.2-.69a.41.41,0,0,0-.1.2c.63,2.89,1.65,5.7,2.3,8.59.71,3.07,1.34,6.16,2.12,9.21.05.19.41-.09.4-.22-.06-.63-.11-1.25-.17-1.86.09.21.45-.11.45-.26a71.76,71.76,0,0,0-1.21-9.1c-.4-2-.83-5.84-3.11-6.76.87-.26,1.73-.51,2.6-.74,1.36,6.06,4,11.77,5,18,0,.22.37,0,.37-.17a33.82,33.82,0,0,0-5.09-17.87c1.12-.31,2.25-.59,3.38-.87C679,820.2,680,826.71,681.82,833c0,.19.4-.07.39-.21-.67-6.28-1.26-13.43-4.6-19.05q2.73-.67,5.47-1.2c1,4.91,1.45,9.84,2.19,14.8,0,.23.37,0,.37-.16.19-4.82-.18-10.15-2-14.74,1.22-.23,2.45-.44,3.68-.64.23,4.77.18,9.64.74,14.36,0,.2.29,0,.31-.13.5-4.55.88-9.85-.58-14.3l2.3-.33c.05,2.17.37,4.32.34,6.51a41.84,41.84,0,0,0,0,7.34c0,.25.4,0,.41-.15a51.06,51.06,0,0,0,.49-7.62c0-1.68.3-4.6-.86-6.13,1.14-.16,2.3-.29,3.45-.39a78.37,78.37,0,0,0,0,10.28c0,.17.27,0,.29-.1a39.28,39.28,0,0,0,.07-10.22c.88-.09,1.78-.16,2.66-.22.45,4.26-.23,8.38-.3,12.65,0,.18.27,0,.28-.11.87-3.61,2.2-8.94.5-12.57.95-.06,1.91-.11,2.84-.14-.73,2.06-.58,4.47-.72,6.61a68.68,68.68,0,0,0-.26,8.11c0,.26.4,0,.44-.15a44.75,44.75,0,0,0,1.11-7.89c.12-1.93.78-4.83-.05-6.7,1,0,2.08,0,3.12,0a28.23,28.23,0,0,0-1.37,11.73c0,.2.33,0,.35-.13.54-3.82,1.31-7.74,1.5-11.6.49,0,1,0,1.5,0,.07,0,.16-.14.07-.14C705.46,810.35,704.94,810.35,704.43,810.34Zm-56.52,12.8c-.76.39-1.5.78-2.24,1.18q.36-.44.75-.87a13.79,13.79,0,0,1,1.45-1.41l.73-.24A5,5,0,0,0,647.91,823.14Zm-5.42,3a19.56,19.56,0,0,1,3.27-3c.07,0,.19-.3,0-.24-1.91.57-3.58,2.28-4.85,4v0a.56.56,0,0,0-.2-.33c.38-.37.78-.75,1.15-1.13.1-.1.11-.34-.09-.24a11.07,11.07,0,0,0-1.81,1.16,7.09,7.09,0,0,0-2.36.66c1.47-1,2.93-2,4.5-2.86.62-.35,1.25-.66,1.89-1,.85-.28,1.71-.54,2.57-.8a9.9,9.9,0,0,0-1.78,2.36C644,825.22,643.25,825.67,642.49,826.13Zm-6.9,4.65c.43-.65.84-1.32,1.33-1.94a6.26,6.26,0,0,1,.9-.88l.9-.42a10.75,10.75,0,0,0-1.67,2.17C636.57,830.07,636.07,830.41,635.59,830.78Zm-6.22,5.62a3.57,3.57,0,0,0-.47,0c.36-.41.74-.82,1.13-1.21.13.06.27.1.4.15C630.07,835.66,629.72,836,629.37,836.4Zm-2.55,3c.12-.3.22-.58.35-.87.4-.56.82-1.09,1.25-1.61l.45,0C628.16,837.7,627.47,838.52,626.82,839.36ZM608,838.88l.8.71a10.85,10.85,0,0,0-2.47,1.1A7.68,7.68,0,0,1,608,838.88Zm5.31-24.54.64,1.44a.16.16,0,0,0,0,.09c0,.2.06.4.08.59-.24-.63-.47-1.28-.71-1.92C613.32,814.47,613.3,814.4,613.29,814.34Zm18.82,3.56a34.12,34.12,0,0,0,2.85-2.53,1.79,1.79,0,0,1,0,.23c-.7.68-1.29,1.32-1.71,1.74s-1,1.14-1.55,1.72C631.82,818.67,632,818.28,632.11,817.9Zm.47,15.39c-.05-.09-.08-.17-.12-.24l.12-.1.06,0a1.21,1.21,0,0,0,.1.14.09.09,0,0,0,0,.06A1.54,1.54,0,0,0,632.58,833.29Zm-15-.67c0-.3,0-.62,0-.93,0,0,0,.08,0,.11,0,.37.05.73.08,1.1C617.69,832.82,617.66,832.72,617.63,832.62ZM622.1,830a50.5,50.5,0,0,0,1.42,5.7c0,.2,0,.4,0,.6-.14.58-.27,1.18-.42,1.77-.34-1.7-.85-3.39-1.26-5.07-.08-.33-.13-.67-.2-1C621.8,831.32,621.94,830.66,622.1,830Zm1.29-4.48a30.83,30.83,0,0,0,1.09,6.4,10.76,10.76,0,0,0-.52,1.23c-.19-1.22-.48-2.43-.76-3.69q-.24-1-.42-2c.05-.18.09-.35.15-.54C623.07,826.41,623.24,826,623.39,825.51Zm1.75-4.55A24.19,24.19,0,0,0,626,828c-.27.83-.52,1.67-.78,2.5l-.1.2c-.18-2.28-.6-4.57-.88-6.85,0-.18,0-.36-.06-.53C624.5,822.56,624.81,821.76,625.14,821Zm5.13,1.92c.44-.61.88-1.21,1.32-1.79-.11.27-.19.55-.3.85,0,.09.07.07.14,0-.1.43-.2.84-.29,1.27s-.42.62-.63.93l-.37.36a5.5,5.5,0,0,0-.07-1.08C630.13,823.26,630.21,823.07,630.27,822.88Zm-1.71,5.42c.09-.13.17-.26.27-.38a9.73,9.73,0,0,0-.28,1.54c0,.06,0,.06.07.06-.31.52-.6,1-.88,1.56C628,830.16,628.28,829.23,628.56,828.3Zm6.11.09c-.15.17-.33.32-.47.5a.52.52,0,0,0-.12.07l.4-.41Zm-1.75,2a4.17,4.17,0,0,0,.69-.29,1.55,1.55,0,0,0,.06.31,6.15,6.15,0,0,0-1.44.59c.19-.21.35-.42.54-.62A.23.23,0,0,0,632.92,830.37Zm1.44.25c0,.11,0,.23,0,.37a3.21,3.21,0,0,0-.12-.33Zm-3,2.33-.87.55,0,0c.42-.39.85-.74,1.29-1.09a1.74,1.74,0,0,0,0,.22Zm-1.59-6.11c.27-.3.53-.61.83-.9,0,.16-.06.32-.09.46-.47.76-.94,1.52-1.38,2.27A17.83,17.83,0,0,0,629.75,826.84Zm4.29-3.73-.53.75c.16-.24.31-.46.46-.7Zm-2,5.68.07-.08v0S632.06,828.77,632,828.79Zm0,3.42.1-.08a1,1,0,0,1,.14.22l-.14.08C632.11,832.36,632.07,832.29,632,832.21Zm4.73-10.64a0,0,0,0,1,0,0,0,0,0,0,0,0,0Zm-1.34-.63.2-.28a1.82,1.82,0,0,0-.15.27ZM622,843.1c0,.1,0,.19-.05.3q-.23-3.23-.51-6.47c0-.54-.11-1.09-.17-1.64a23.92,23.92,0,0,0,1.48,4.64C622.45,841,622.18,842,622,843.1Zm10.62-11.28c.4-.29.8-.56,1.2-.83,0,.18.07.36.11.53a10.32,10.32,0,0,0-1.06.51Zm1.47-1.81s0,.06,0,.08a.91.91,0,0,1-.09-.17l.19-.1C634.1,829.89,634,829.94,634.05,830Zm-.27-4.22c.44-.68.9-1.34,1.37-2a26.46,26.46,0,0,1,2.58-2c-.83.93-1.63,1.88-2.42,2.84C634.8,825,634.29,825.38,633.78,825.79Zm3.92-7.22q-.6.36-1.17.78l.47-.67c.44-.31.89-.61,1.36-.88C638.14,818.05,637.91,818.31,637.7,818.57Zm-3.1.6c.24-.72.46-1.44.63-2.18.53-.52,1.07-1,1.63-1.51a22.89,22.89,0,0,0-.72,2.31A18.3,18.3,0,0,0,634.6,819.17Zm-.47.47c-.3.3-.55.61-.82.91a16.51,16.51,0,0,0,.24-1.82c.32-.33.61-.67.94-1C634.34,818.37,634.22,819,634.13,819.64Zm-1.32-.11s0,0,0,0c-.17.72-.35,1.46-.5,2.19-.12.14-.23.29-.33.43a14.52,14.52,0,0,0,.1-1.46c0-.08,0-.1-.1-.09C632.27,820.2,632.53,819.84,632.81,819.53Zm-1.93,14.82c.37-.32.73-.65,1.11-1,0,.12.08.22.12.33-.32.27-.64.56-.94.85Zm2.85-2.1a1.62,1.62,0,0,0-.22,0c.16-.1.34-.2.5-.31a.19.19,0,0,0,0,.1l-.28.22Zm1.46-2.08a1.69,1.69,0,0,0-.23-.54c-.05-.11-.13-.12-.26-.11l.84-.42c0,.07,0,.16.07.25A4.55,4.55,0,0,0,635.19,830.17Zm.63-1.17v0l.07,0Zm2.46-3.35-.66.15,1.56-.68ZM637,821.44c.12-.11.3-.32.26-.46l1.09-1.38.09-.07a13.66,13.66,0,0,1,2.92-1.55c-.73.73-1.43,1.46-2.13,2.22A10,10,0,0,0,637,821.44Zm7.11-6.14a4.1,4.1,0,0,0-1.45,1.15,9.59,9.59,0,0,0-2.26.71c.68-.76,1.35-1.51,2-2.26a8,8,0,0,1,3.17-1C645.06,814.37,644.55,814.83,644.06,815.3Zm-7.36,2.07c.27-.82.55-1.63.81-2.46.26-.22.55-.46.87-.69a11.27,11.27,0,0,0-.39,1.49c-.4.53-.79,1-1.18,1.59Zm2.5-3.69.53-.27c-.27.33-.52.68-.78,1C639,814.18,639.13,813.93,639.2,813.68Zm1.8-1.82c-.19.23-.39.46-.57.69a2.58,2.58,0,0,0-.83,0c.17-.51.35-1,.49-1.52a4.06,4.06,0,0,1,1.27-.58A10.54,10.54,0,0,0,641,811.86Zm-2.12.89a6.51,6.51,0,0,0-.82.37,2.11,2.11,0,0,0,.06-.6c.37-.32.76-.63,1.15-.91C639.14,812,639,812.37,638.88,812.75Zm-1.13.08a3,3,0,0,1-.12.55,16.53,16.53,0,0,0-2.12,1.67,1.28,1.28,0,0,1,0-.19l.41-.38C636.16,814.27,636.88,813.58,637.75,812.83Zm-11.07,13.24c-.07.23-.16.45-.24.67-.23-2.14-.46-4.29-.53-6.46v-1.19c.15-.38.29-.78.43-1.16a41.39,41.39,0,0,0,.67,7.13A2.72,2.72,0,0,0,626.68,826.07ZM624,821.3c-.09-1-.16-2-.25-3.07.37-1,.72-1.92,1.15-2.87.09-.22-.19-.12-.26,0-.36.58-.68,1.16-1,1.75l-.09-.74c.58-1.29,1.13-2.58,1.64-3.89.05-.09.08-.17.13-.26-.11,2.24-.16,4.51-.17,6.76C624.73,819.73,624.34,820.51,624,821.3ZM622,820c.3-.79.63-1.57,1-2.34,0,.24,0,.49,0,.73-.41.87-.8,1.76-1.14,2.66,0-.15,0-.28-.06-.42S621.93,820.19,622,820Zm1,.06c0,1,.11,2.05.19,3.06-.27.67-.55,1.35-.78,2-.12-.77-.24-1.55-.33-2.33C622.37,821.88,622.67,821,623,820Zm-1.37,7.49c-.17.57-.31,1.16-.44,1.74-.12-.81-.24-1.61-.38-2.43.16-.54.3-1.11.47-1.66C621.37,826,621.48,826.75,621.63,827.53Zm-4.48-1.9c-.15-.46-.28-.92-.44-1.37v-.1c.13.35.25.69.41,1A3.37,3.37,0,0,0,617.15,825.63Zm-1.67.14c.11.73.22,1.45.34,2.16l-.05-.12c-.17-.88-.33-1.77-.5-2.65Zm1.72,10.68c0-.1,0-.21,0-.31.12.1.43-.15.43-.31s0-.51,0-.77l.33.74c0,.57.1,1.15.14,1.72.09.87.14,1.73.21,2.6C618,838.88,617.59,837.66,617.2,836.45Zm-11.4.68s0,0,0,0h0Zm3.78,3.2a3.39,3.39,0,0,1,.34.31l-1.46,1c.27-.42.56-.82.86-1.22Zm.64.59c.38.37.76.77,1.13,1.16l-.29.37a28.38,28.38,0,0,0-4.64,3c.39-.84.8-1.66,1.24-2.46A30.43,30.43,0,0,0,610.22,840.92Zm1.71,1.74.28.33a5.31,5.31,0,0,0-1,.3c.11-.16.24-.33.36-.49A2,2,0,0,1,611.93,842.66ZM640.33,827c.16,0,.29,0,.33.11s.08.05.12,0l-1.54,1C639.59,827.79,640,827.4,640.33,827Zm5.54-5.42c-1.22.37-2.41.76-3.58,1.16l-1.37.5,1.22-.8c.42-.15.83-.31,1.27-.44A10.15,10.15,0,0,1,645.87,821.61Zm-5.69.86c-.08-.38-.5-.37-1.08-.16l.76-.81,1.17-.69a2.73,2.73,0,0,1,.64.27c.09.06.28-.09.23-.2a1.49,1.49,0,0,0-.28-.41l1.28-.75c2.39-1,4.88-2,5.51-1.79-2.38,1.24-4.77,2.56-7,4C641,822.11,640.57,822.29,640.18,822.47Zm8.56-4.71a.62.62,0,0,0-.19-.23c.52-.19,1-.34,1.58-.48C649.67,817.28,649.21,817.53,648.74,817.76Zm-5.07.62-1.4.62c.65-.65,1.33-1.28,2-1.92.12,0,.25,0,.37,0s.29-.14.2-.21a2.15,2.15,0,0,0-.26-.14l.28-.26,4.67-2.74c1.71-.73,3.66-1.44,4-.91.07.12.24,0,.21-.14-.05-.28-.42-.39-1-.38a18.93,18.93,0,0,1,3.8-.65C652.32,813.87,647.78,815.87,643.67,818.38Zm7.06-6.39c1-.62,2-1.21,3-1.82a26.26,26.26,0,0,1,3.68-1.32,56.36,56.36,0,0,0-5.95,2.9Zm12.1-6.84a59.48,59.48,0,0,0-8.88,4,2.29,2.29,0,0,0-.37.2.16.16,0,0,0-.07.07l-.87.37c.37-.29.72-.59,1.09-.87,1.43-.83,2.88-1.61,4.33-2.4S661.38,805,662.83,805.15Zm-4.7.49.62-.46c.18,0,.37-.06.53-.09Zm18.76-10.15H677a37,37,0,0,0-4.92,1.56,22.73,22.73,0,0,0-3.05,1.26l-.23.09c1.33-.85,2.68-1.67,4-2.49A23.22,23.22,0,0,0,676.89,795.49Zm2.3-3.41a19.65,19.65,0,0,0,2.13-.34s0,.06,0,.09l-.33.06-2,.34Zm-31.06,19.55-2.26,2a6.33,6.33,0,0,0-3,.72,3,3,0,0,0,.25-.25c.82-.56,1.68-1.06,2.56-1.55,0,.08,0,.12-.31.42-.11.11,0,.22.11.11a2.36,2.36,0,0,0,.79-1c.06-.15.08-.37-.16-.38a2.38,2.38,0,0,0-.59.07A4.45,4.45,0,0,1,648.13,811.63Zm.59-4.08c.33-.18.67-.35,1-.51l-1.32,1.07a8.33,8.33,0,0,0-1.31.37C647.64,808.17,648.18,807.84,648.72,807.55Zm-1.55,1.62c-.94.8-1.85,1.61-2.76,2.45a9.5,9.5,0,0,0-4.49,3.23c-.1.15,0,.28.18.16.73-.51,1.71-1.26,2.79-1.93l-.09.09a7.67,7.67,0,0,0-2.75,2.41c0,.11,0,.25.11.26L640,816l-.32.2a3.47,3.47,0,0,0-1.09.19c.79-1.1,1.59-2.19,2.42-3.26h.17c.06,0,.22-.1.15-.16l-.14-.07c.2-.24.39-.49.58-.73A45.27,45.27,0,0,1,647.17,809.17Zm-3.83,0c-.37.4-.76.78-1.11,1.18.58-1.3,1.09-2.62,1.54-4l1.05-.49A13.43,13.43,0,0,0,643.34,809.17Zm-.46-2.35s0,0,.06,0a27.46,27.46,0,0,0-1.41,3.13,2.07,2.07,0,0,0-1.25.11c-.06-.14-.37,0-.44.13h0c-2.08.89-5,3.39-6.83,5.44.24-.59.5-1.18.76-1.76,1.71-1.54,3.2-3.27,5.07-4.69A23.78,23.78,0,0,1,642.88,806.82Zm-6.19.88a1.8,1.8,0,0,0-.14.54s0,0,.05.07l-.58.53c.16-.31.33-.64.48-1C636.57,807.83,636.62,807.76,636.69,807.7ZM649,792.86c1.15-.71,5.36-3.57,8-3.88a97.89,97.89,0,0,0-14.06,8l-.66.37a.36.36,0,0,1,.07-.1C644.58,795.84,646.72,794.27,649,792.86ZM656,781.62l.77-.35a54.53,54.53,0,0,0-4.92,4A22.58,22.58,0,0,0,650,786.6c1-1.13,1.93-2.24,2.94-3.33C654,782.72,655,782.15,656,781.62Zm-1.48-2.06.13,0-.69.69c.14-.26.26-.51.38-.77C654.38,779.52,654.42,779.59,654.56,779.56Zm-2.85,1.71a12.19,12.19,0,0,0-.51,1.51l-.13.07-.1,0C651.21,782.36,651.46,781.81,651.71,781.27Zm-9.59,13.28.07,0-.1.14A.38.38,0,0,0,642.12,794.55Zm-6.5,9.81c.38-.35.76-.68,1.15-1-.45.8-.88,1.59-1.3,2.39C635.51,805.28,635.56,804.82,635.62,804.36Zm-5.74,12.5c.19-.22.39-.42.58-.63-.19.44-.37.91-.56,1.37C629.89,817.35,629.88,817.11,629.88,816.86Zm-3.68-6.64c0,1.46.13,2.93.13,4.29,0,.8,0,1.62,0,2.42-.16.25-.3.51-.44.76a54.6,54.6,0,0,0-.22-6.28C625.84,811,626,810.62,626.2,810.22Zm-5.05,12.18c0,.17,0,.34,0,.51-.23.7-.46,1.42-.65,2.13,0-.1,0-.19,0-.28C620.67,824,620.9,823.18,621.15,822.4Zm-4-19.82a2.81,2.81,0,0,0-.08.31,1,1,0,0,1,0-.24A.34.34,0,0,0,617.17,802.58Zm-.82-8.93a8.41,8.41,0,0,0-.21,1c-.06-.61-.13-1.22-.19-1.83,0-.1,0-.21.09-.31C616.14,792.86,616.24,793.25,616.35,793.65Zm.1-10.45c-.15.36-.29.72-.41,1.08a28.93,28.93,0,0,1,1.13-3.83C616.89,781.37,616.65,782.29,616.45,783.2Zm-1.4-7.7c-.07-.27-.16-.54-.24-.81,0,0,.12,0,.15-.05l.15-.45a9.75,9.75,0,0,0,0,1.62C615.1,775.7,615.08,775.6,615.05,775.5Zm-.48-4.35c.17.61.32,1.22.54,1.81,0,0,0,0,0,0-.12.56-.24,1.12-.33,1.66,0-.15-.09-.31-.14-.47C614.62,773.16,614.59,772.16,614.57,771.15Zm.53,11.51a1.59,1.59,0,0,0,.18.27c.06.06.2-.07.2-.13a5.36,5.36,0,0,1-.06-.69c.05.24.12.47.16.69,0,.06,0,.07.09.09a16.71,16.71,0,0,0-.33,2,3.18,3.18,0,0,1-.09-.33.48.48,0,0,0,0-.17C615.16,783.78,615.13,783.22,615.1,782.66Zm1.35,33.76c.07.75.12,1.51.17,2.26-.41-1.3-.88-2.57-1.35-3.81-.11-.31-.24-.63-.35-.93-.18-1.1-.36-2.19-.55-3.28C615.16,812.56,615.83,814.48,616.45,816.42ZM612,805.35c.1.24.21.47.32.7a.1.1,0,0,1,0,0c.05.08.08.16.14.24l.5,1.13a11.77,11.77,0,0,1,.43,2.81c-.25-.52-.51-1-.78-1.52C612.45,807.61,612.26,806.48,612,805.35Zm-3.41,6.42c0,.06,0,.13.07.2.64,1.86,1.23,3.75,1.84,5.64.33,3.17,2,6.22,3.27,9.1l.37.78c.07.41.14.82.22,1.23a79.53,79.53,0,0,0-3.7-7.46.1.1,0,0,0,.08-.1C609.91,818.09,609.3,814.91,608.59,811.77Zm-23.5-19.86c.42.4.87.78,1.29,1.18-.29-.17-.6-.31-.9-.47C585.35,792.39,585.23,792.15,585.09,791.91Zm15.64,21.52c2,1.83,3.85,3.78,5.66,5.75.28.51.57,1,.84,1.51.13.25.24.53.37.78l-.77-1c-2.28-2.8-4.68-5.51-7.23-8.09C600,812.76,600.36,813.09,600.73,813.43Zm-1.25,1.05a17.35,17.35,0,0,1,2.91,2.84l-1.07-1C600.8,815.83,600.17,815.17,599.48,814.48Zm-9.75,9.85s0-.05,0-.07c.49.43,1,.87,1.43,1.34-.76-.24-1.51-.49-2.29-.71C589.19,824.7,589.46,824.5,589.73,824.33Zm-17.05-3.43a.44.44,0,0,0,.2-.21c0,.14-.16,0,.17.16a9.1,9.1,0,0,1,.85.37,19.62,19.62,0,0,1,1.83,1.09l-1.16-.11A19.15,19.15,0,0,0,572.68,820.9Zm-3.49,1.86,1.68.24c-.15.11-.29.2-.41.3a18.37,18.37,0,0,0-4.3,1.83A19.31,19.31,0,0,1,569.19,822.76Zm-1,3.4a23.2,23.2,0,0,1,1.82-1.89l0,0c.92-.32,1.87-.61,2.84-.87l.51.11a15.08,15.08,0,0,0-2.42,1.13,19.52,19.52,0,0,0-3,1.76C568.1,826.3,568.17,826.23,568.22,826.16Zm5.9-.92c-.07.06-.12.13-.19.2a15.76,15.76,0,0,0-5.43,3.29,17.73,17.73,0,0,1,5.52-4.81,1.45,1.45,0,0,1,1,0c.06,0,.14,0,.2-.07l.3.06C575,824.4,574.46,824.93,574.12,825.24Zm3.1.75a16.11,16.11,0,0,1,1.38-1.09l.25-.17c.53.14,1,.27,1.58.43a6,6,0,0,0-.6.51,7.33,7.33,0,0,0-3.33,1.07C576.75,826.5,577,826.23,577.22,826Zm.91,2.52c.11-.16.24-.31.36-.47a16.55,16.55,0,0,1,1.74-1.82,1.89,1.89,0,0,1,.23,0c.12.06.37-.18.25-.28s-.09,0-.14-.09l.61-.54,1.69.53c-.35.3-.69.6-1,.92A17.79,17.79,0,0,0,578.13,828.51Zm5.36-2.42.62.21a9,9,0,0,0-1,.17C583.22,826.34,583.35,826.21,583.49,826.09Zm2.15.84c0-.06-.1-.12-.15-.18l.35.12-.22.2C585.65,827,585.67,827,585.64,826.93Zm.68.1c.75.27,1.49.57,2.23.86a33.84,33.84,0,0,0-5,2.25A32.93,32.93,0,0,1,586.32,827Zm-2.92,8.79c1.88-2.65,3.54-5.35,6-7.58h0l1.28.51a3.3,3.3,0,0,0,.3.22,18.68,18.68,0,0,0-2.38,2.71c-.34.22-.68.42-1,.62A19.47,19.47,0,0,0,583.4,835.82Zm6.33-4.82a12.45,12.45,0,0,1,1.63-1.76c.14.1.26.2.41.29s.29,0,.32-.18l.9.42A10.88,10.88,0,0,0,589.73,831Zm6.38.85c-.94.41-1.92.82-2.89,1.27a18.4,18.4,0,0,1,2.33-2.16l1.19.61Zm-1.35,4.41c1-1.53,2.33-3.1,4-3.47l.08-.06c.39.2.8.4,1.17.62A20.37,20.37,0,0,0,594.76,836.26Zm7.47-.57c-.85.44-1.68.91-2.51,1.38-.62.35-1.26.72-1.86,1.12a11.93,11.93,0,0,1,3.69-4c.5.3,1,.61,1.46.92l-.33.33Zm-.7,3.47-1.19.83a24.06,24.06,0,0,1,3.22-4.46c.62.42,1.23.85,1.84,1.3a5.23,5.23,0,0,0-.39.42A12.13,12.13,0,0,0,601.53,839.16Zm2.67,2.92a24.2,24.2,0,0,0-2.88,2.26c.46-.82.9-1.64,1.36-2.44a35.08,35.08,0,0,1,2.61-4.17,3.83,3.83,0,0,1,.87-.22l.09,0c.4.31.78.63,1.18.95a13,13,0,0,0-2.67,3.27C604.56,841.82,604.37,842,604.2,842.08Zm-.15,2.7c.28-.54.63-1.27,1.05-2a20.68,20.68,0,0,1,3.21-1.86c-.35.51-.68,1-1,1.53l-.06.1c-1.14.81-2.27,1.65-3.33,2.55C604,845,604,844.87,604.05,844.78Zm-2.47,4.83c.65-1.16,1.24-2.36,1.81-3.54,1-.75,2-1.48,3.06-2.2-.51.88-1,1.78-1.45,2.7C603.75,847.59,602.56,848.64,601.58,849.61Zm5.61-3.67c-.16.12-.32.27-.49.39,1.32-1.08,2.57-2.07,3.56-2.74l-.19.28A33.94,33.94,0,0,0,607.19,845.94Zm4.52.56a9.54,9.54,0,0,0-3.18,2.36l-.5.48a41,41,0,0,1,1.8-3.85,33.24,33.24,0,0,0,2.93-1.87l.58.64C612.82,844.92,612.26,845.68,611.71,846.5Zm.91,3.31a32.86,32.86,0,0,1,1.91-3.3c.09-.12.2-.23.29-.35,0,.06.11.12.16.19.34.47.65,1,1,1.44A7.67,7.67,0,0,0,612.62,849.81Zm4.44.9s0,0,0-.05v2.46l0,0A5.74,5.74,0,0,0,616,854C616.3,852.88,616.64,851.78,617.06,850.71Zm10.83-6.36a5.54,5.54,0,0,0-1.37-.26,2.25,2.25,0,0,1,.12-.21A6.77,6.77,0,0,1,627.89,844.35Zm3.2-2.37a6.59,6.59,0,0,0-3.4.18c.21-.33.41-.67.64-1C629.27,841.42,630.19,841.69,631.09,842Zm10.51-2.79a25.89,25.89,0,0,0-8.48-3.63c.43-.42.85-.86,1.31-1.27a27.74,27.74,0,0,1,7.41,5ZM634.72,834c.12-.12.24-.22.38-.34,1.1.61,2.2,1.22,3.28,1.85A17.34,17.34,0,0,0,634.72,834Zm9.47,3.78a53.56,53.56,0,0,0-8.77-4.38l1-.89A26.68,26.68,0,0,1,644.19,837.8Zm8.08-7.24a30.06,30.06,0,0,0-5.33-5.18l1.16-.65A46.25,46.25,0,0,1,652.27,830.56Zm7.43-8.66c-.4-.68-.84-1.32-1.29-1.94l.27-.11A8.36,8.36,0,0,1,659.7,821.9Zm5.74-.92a22.38,22.38,0,0,0-2.05-2.94l.76-.27C664.6,818.85,665,819.91,665.44,821Zm7.12-1.26a14.66,14.66,0,0,0-2-4h0l.3-.1s0,.07,0,.09A12.78,12.78,0,0,1,672.56,819.72Z" transform="translate(0 -703)"/><path class="cls-5" d="M680.37,813.17c-.08-.06-.24.07-.2.15,2.77,4.47.73,10.22,2.17,15,0,.16.34-.07.32-.18-.22-2.76-.13-5.54-.29-8.3C682.26,817.81,682.26,814.56,680.37,813.17Z" transform="translate(0 -703)"/><path class="cls-5" d="M707.13,810.26c-.16-.16-.45.18-.42.34a7.07,7.07,0,0,1-.21,2.37,20.45,20.45,0,0,0-.24,2.47c0,.22.32,0,.35-.13a15.68,15.68,0,0,0,.82-3C707.51,811.63,707.69,810.81,707.13,810.26Z" transform="translate(0 -703)"/><path class="cls-5" d="M654.46,819.84c-.05.16.17.09.23,0,.42-.34.89-1.2,1.4-1.38.09,0,.19-.24,0-.22A2.41,2.41,0,0,0,654.46,819.84Z" transform="translate(0 -703)"/><path class="cls-5" d="M615,762.93c.63-1.83,1.13-3.68,2.64-5.06.11-.09,0-.2-.1-.13-1.91,1.08-2.46,3.3-2.8,5.25C614.71,763.18,615,763,615,762.93Z" transform="translate(0 -703)"/><path class="cls-5" d="M627.86,783.46a32.73,32.73,0,0,0-6.24,9.84,48.21,48.21,0,0,0-3.91,12.27c0,.18.22,0,.26-.06,1.42-3.83,2.51-7.72,4.11-11.49a59.89,59.89,0,0,1,6-10.43C628.23,783.39,628,783.3,627.86,783.46Z" transform="translate(0 -703)"/><path class="cls-5" d="M596.71,795.66c0,.77.85,2.05,1.15,2.75.6,1.34,1.23,2.67,1.84,4,1.12,2.41,2.2,4.83,3.45,7.18.06.12.3-.06.25-.18a128,128,0,0,0-6.64-14.5c-.08-.14-.3.06-.3.16s0,.44,0,.67S596.71,795.75,596.71,795.66Z" transform="translate(0 -703)"/><path class="cls-5" d="M581.5,789.71c.06,0,.2-.12.13-.15a18.79,18.79,0,0,0-4.46-2.11c-.07,0-.2.11-.11.15C578.59,788.2,580,789.12,581.5,789.71Z" transform="translate(0 -703)"/></g></g></g></svg>